<svg width="253" height="50" viewBox="0 0 253 50" fill="none" xmlns="http://www.w3.org/2000/svg">
<path d="M73.1 32.225C71.7833 32.225 70.5583 32.075 69.425 31.775C68.2917 31.4583 67.3667 31.0167 66.65 30.45C66.4 30.2667 66.2167 30.075 66.1 29.875C66 29.6583 65.95 29.3917 65.95 29.075C65.95 28.6583 66.075 28.2917 66.325 27.975C66.5917 27.6583 66.8917 27.5 67.225 27.5C67.4083 27.5 67.5833 27.5333 67.75 27.6C67.9333 27.65 68.15 27.75 68.4 27.9C69.1167 28.35 69.8417 28.6833 70.575 28.9C71.3083 29.1 72.1167 29.2 73 29.2C74.1 29.2 74.9417 29.0167 75.525 28.65C76.1083 28.2833 76.4 27.7583 76.4 27.075C76.4 26.5583 76.125 26.1417 75.575 25.825C75.0417 25.5083 74.0833 25.2083 72.7 24.925C71.15 24.6083 69.9083 24.225 68.975 23.775C68.0583 23.325 67.3833 22.7667 66.95 22.1C66.5333 21.4333 66.325 20.625 66.325 19.675C66.325 18.625 66.625 17.6833 67.225 16.85C67.8417 16 68.6833 15.3417 69.75 14.875C70.8333 14.3917 72.05 14.15 73.4 14.15C75.7667 14.15 77.7167 14.7417 79.25 15.925C79.5 16.125 79.675 16.3333 79.775 16.55C79.8917 16.75 79.95 17 79.95 17.3C79.95 17.7167 79.8167 18.0833 79.55 18.4C79.3 18.7167 79.0083 18.875 78.675 18.875C78.4917 18.875 78.3167 18.85 78.15 18.8C78 18.75 77.7833 18.6417 77.5 18.475C76.8167 18.0417 76.1833 17.7167 75.6 17.5C75.0333 17.2833 74.3083 17.175 73.425 17.175C72.4083 17.175 71.6083 17.375 71.025 17.775C70.4417 18.1583 70.15 18.6917 70.15 19.375C70.15 19.775 70.2583 20.1083 70.475 20.375C70.7083 20.625 71.0833 20.85 71.6 21.05C72.1333 21.25 72.8833 21.4583 73.85 21.675C76.1167 22.175 77.7417 22.8167 78.725 23.6C79.725 24.3833 80.225 25.4583 80.225 26.825C80.225 27.8917 79.925 28.8333 79.325 29.65C78.7417 30.4667 77.9083 31.1 76.825 31.55C75.7583 32 74.5167 32.225 73.1 32.225ZM90.3342 19.425C91.3842 19.425 92.3175 19.7 93.1342 20.25C93.9675 20.7833 94.6092 21.5417 95.0592 22.525C95.5258 23.4917 95.7592 24.6083 95.7592 25.875C95.7592 27.1417 95.5258 28.2583 95.0592 29.225C94.6092 30.175 93.9758 30.9083 93.1592 31.425C92.3425 31.9417 91.4008 32.2 90.3342 32.2C89.5008 32.2 88.7425 32.0333 88.0592 31.7C87.3925 31.35 86.8758 30.8667 86.5092 30.25V34.975C86.5092 35.475 86.3425 35.875 86.0092 36.175C85.6758 36.475 85.2342 36.625 84.6842 36.625C84.1008 36.625 83.6258 36.4667 83.2592 36.15C82.9092 35.8333 82.7342 35.4167 82.7342 34.9V21.25C82.7342 20.7167 82.9008 20.2917 83.2342 19.975C83.5842 19.6417 84.0425 19.475 84.6092 19.475C85.1758 19.475 85.6258 19.6417 85.9592 19.975C86.2925 20.2917 86.4592 20.7167 86.4592 21.25V21.45C86.8258 20.8167 87.3508 20.325 88.0342 19.975C88.7175 19.6083 89.4842 19.425 90.3342 19.425ZM89.2342 29.325C90.1175 29.325 90.8008 29.0333 91.2842 28.45C91.7675 27.85 92.0092 26.9917 92.0092 25.875C92.0092 24.7417 91.7675 23.8667 91.2842 23.25C90.8008 22.6167 90.1175 22.3 89.2342 22.3C88.3508 22.3 87.6675 22.6083 87.1842 23.225C86.7008 23.825 86.4592 24.6917 86.4592 25.825C86.4592 26.9417 86.7008 27.8083 87.1842 28.425C87.6675 29.025 88.3508 29.325 89.2342 29.325ZM99.9662 32.15C99.4162 32.15 98.9579 32 98.5912 31.7C98.2412 31.4 98.0662 30.9583 98.0662 30.375V21.25C98.0662 20.6667 98.2495 20.225 98.6162 19.925C98.9829 19.625 99.4329 19.475 99.9662 19.475C100.5 19.475 100.941 19.625 101.291 19.925C101.658 20.225 101.841 20.6667 101.841 21.25V30.375C101.841 30.9583 101.658 31.4 101.291 31.7C100.941 32 100.5 32.15 99.9662 32.15ZM99.9662 17.475C99.2995 17.475 98.7745 17.3083 98.3912 16.975C98.0079 16.625 97.8162 16.1583 97.8162 15.575C97.8162 14.9917 98.0079 14.5333 98.3912 14.2C98.7745 13.8667 99.2995 13.7 99.9662 13.7C100.616 13.7 101.133 13.875 101.516 14.225C101.916 14.5583 102.116 15.0083 102.116 15.575C102.116 16.1583 101.925 16.625 101.541 16.975C101.158 17.3083 100.633 17.475 99.9662 17.475ZM115.206 14.25C115.79 14.25 116.256 14.4083 116.606 14.725C116.973 15.0417 117.156 15.4583 117.156 15.975V30.375C117.156 30.9083 116.981 31.3417 116.631 31.675C116.298 31.9917 115.848 32.15 115.281 32.15C114.715 32.15 114.256 31.9917 113.906 31.675C113.573 31.3417 113.406 30.9083 113.406 30.375V30.175C113.04 30.8083 112.515 31.3083 111.831 31.675C111.165 32.025 110.406 32.2 109.556 32.2C108.506 32.2 107.565 31.9333 106.731 31.4C105.915 30.85 105.273 30.0917 104.806 29.125C104.356 28.1417 104.131 27.0167 104.131 25.75C104.131 24.4833 104.356 23.375 104.806 22.425C105.273 21.4583 105.915 20.7167 106.731 20.2C107.548 19.6833 108.49 19.425 109.556 19.425C110.39 19.425 111.14 19.6 111.806 19.95C112.49 20.3 113.015 20.7917 113.381 21.425V15.9C113.381 15.4 113.548 15 113.881 14.7C114.215 14.4 114.656 14.25 115.206 14.25ZM110.656 29.325C111.54 29.325 112.215 29.025 112.681 28.425C113.165 27.8083 113.406 26.9333 113.406 25.8C113.406 24.6667 113.165 23.8 112.681 23.2C112.215 22.6 111.54 22.3 110.656 22.3C109.773 22.3 109.09 22.6 108.606 23.2C108.123 23.7833 107.881 24.6333 107.881 25.75C107.881 26.8833 108.123 27.7667 108.606 28.4C109.09 29.0167 109.773 29.325 110.656 29.325ZM129.913 28.35C130.247 28.35 130.513 28.4833 130.713 28.75C130.93 29.0167 131.038 29.3583 131.038 29.775C131.038 30.0583 130.955 30.325 130.788 30.575C130.622 30.8083 130.388 31.0083 130.088 31.175C129.522 31.475 128.863 31.725 128.113 31.925C127.363 32.1083 126.672 32.2 126.038 32.2C124.705 32.2 123.538 31.9417 122.538 31.425C121.555 30.9083 120.797 30.175 120.263 29.225C119.73 28.2583 119.463 27.125 119.463 25.825C119.463 24.575 119.722 23.4667 120.238 22.5C120.755 21.5333 121.472 20.7833 122.388 20.25C123.305 19.7 124.347 19.425 125.513 19.425C126.63 19.425 127.605 19.675 128.438 20.175C129.288 20.6583 129.947 21.3583 130.413 22.275C130.88 23.175 131.113 24.2333 131.113 25.45C131.113 25.8167 131.022 26.1 130.838 26.3C130.672 26.4833 130.43 26.575 130.113 26.575H123.113C123.23 27.5583 123.53 28.275 124.013 28.725C124.497 29.1583 125.188 29.375 126.088 29.375C126.572 29.375 127.005 29.3167 127.388 29.2C127.772 29.0833 128.197 28.925 128.663 28.725C128.897 28.625 129.122 28.5417 129.338 28.475C129.555 28.3917 129.747 28.35 129.913 28.35ZM125.613 22.025C124.897 22.025 124.322 22.2583 123.888 22.725C123.455 23.175 123.197 23.8333 123.113 24.7H127.938C127.888 23.8167 127.663 23.15 127.263 22.7C126.88 22.25 126.33 22.025 125.613 22.025ZM140.718 19.475C141.218 19.4417 141.61 19.5583 141.893 19.825C142.193 20.075 142.343 20.4583 142.343 20.975C142.343 21.525 142.21 21.9333 141.943 22.2C141.677 22.4667 141.202 22.6333 140.518 22.7L139.768 22.775C138.852 22.875 138.185 23.175 137.768 23.675C137.368 24.175 137.168 24.8167 137.168 25.6V30.375C137.168 30.9583 136.985 31.4 136.618 31.7C136.268 32 135.827 32.15 135.293 32.15C134.743 32.15 134.285 32 133.918 31.7C133.568 31.4 133.393 30.9583 133.393 30.375V21.2C133.393 20.65 133.577 20.225 133.943 19.925C134.31 19.625 134.752 19.475 135.268 19.475C135.768 19.475 136.185 19.625 136.518 19.925C136.852 20.2083 137.018 20.6083 137.018 21.125V21.8C137.318 21.0833 137.768 20.5333 138.368 20.15C138.985 19.7667 139.652 19.55 140.368 19.5L140.718 19.475ZM150.078 32.225C148.761 32.225 147.536 32.075 146.403 31.775C145.269 31.4583 144.344 31.0167 143.628 30.45C143.378 30.2667 143.194 30.075 143.078 29.875C142.978 29.6583 142.928 29.3917 142.928 29.075C142.928 28.6583 143.053 28.2917 143.303 27.975C143.569 27.6583 143.869 27.5 144.203 27.5C144.386 27.5 144.561 27.5333 144.728 27.6C144.911 27.65 145.128 27.75 145.378 27.9C146.094 28.35 146.819 28.6833 147.553 28.9C148.286 29.1 149.094 29.2 149.978 29.2C151.078 29.2 151.919 29.0167 152.503 28.65C153.086 28.2833 153.378 27.7583 153.378 27.075C153.378 26.5583 153.103 26.1417 152.553 25.825C152.019 25.5083 151.061 25.2083 149.678 24.925C148.128 24.6083 146.886 24.225 145.953 23.775C145.036 23.325 144.361 22.7667 143.928 22.1C143.511 21.4333 143.303 20.625 143.303 19.675C143.303 18.625 143.603 17.6833 144.203 16.85C144.819 16 145.661 15.3417 146.728 14.875C147.811 14.3917 149.028 14.15 150.378 14.15C152.744 14.15 154.694 14.7417 156.228 15.925C156.478 16.125 156.653 16.3333 156.753 16.55C156.869 16.75 156.928 17 156.928 17.3C156.928 17.7167 156.794 18.0833 156.528 18.4C156.278 18.7167 155.986 18.875 155.653 18.875C155.469 18.875 155.294 18.85 155.128 18.8C154.978 18.75 154.761 18.6417 154.478 18.475C153.794 18.0417 153.161 17.7167 152.578 17.5C152.011 17.2833 151.286 17.175 150.403 17.175C149.386 17.175 148.586 17.375 148.003 17.775C147.419 18.1583 147.128 18.6917 147.128 19.375C147.128 19.775 147.236 20.1083 147.453 20.375C147.686 20.625 148.061 20.85 148.578 21.05C149.111 21.25 149.861 21.4583 150.828 21.675C153.094 22.175 154.719 22.8167 155.703 23.6C156.703 24.3833 157.203 25.4583 157.203 26.825C157.203 27.8917 156.903 28.8333 156.303 29.65C155.719 30.4667 154.886 31.1 153.803 31.55C152.736 32 151.494 32.225 150.078 32.225ZM167.487 19.425C170.337 19.425 171.762 21.15 171.762 24.6V30.375C171.762 30.925 171.587 31.3583 171.237 31.675C170.903 31.9917 170.445 32.15 169.862 32.15C169.278 32.15 168.82 31.9917 168.487 31.675C168.153 31.3583 167.987 30.925 167.987 30.375V24.55C167.987 23.8167 167.828 23.275 167.512 22.925C167.212 22.5583 166.737 22.375 166.087 22.375C165.303 22.375 164.67 22.625 164.187 23.125C163.72 23.625 163.487 24.2917 163.487 25.125V30.375C163.487 30.925 163.32 31.3583 162.987 31.675C162.653 31.9917 162.195 32.15 161.612 32.15C161.028 32.15 160.562 31.9917 160.212 31.675C159.878 31.3583 159.712 30.925 159.712 30.375V15.975C159.712 15.4583 159.887 15.0417 160.237 14.725C160.603 14.4083 161.078 14.25 161.662 14.25C162.212 14.25 162.653 14.4 162.987 14.7C163.32 15 163.487 15.4 163.487 15.9V21.35C163.92 20.7167 164.478 20.2417 165.162 19.925C165.845 19.5917 166.62 19.425 167.487 19.425ZM176.48 32.15C175.93 32.15 175.472 32 175.105 31.7C174.755 31.4 174.58 30.9583 174.58 30.375V21.25C174.58 20.6667 174.763 20.225 175.13 19.925C175.497 19.625 175.947 19.475 176.48 19.475C177.013 19.475 177.455 19.625 177.805 19.925C178.172 20.225 178.355 20.6667 178.355 21.25V30.375C178.355 30.9583 178.172 31.4 177.805 31.7C177.455 32 177.013 32.15 176.48 32.15ZM176.48 17.475C175.813 17.475 175.288 17.3083 174.905 16.975C174.522 16.625 174.33 16.1583 174.33 15.575C174.33 14.9917 174.522 14.5333 174.905 14.2C175.288 13.8667 175.813 13.7 176.48 13.7C177.13 13.7 177.647 13.875 178.03 14.225C178.43 14.5583 178.63 15.0083 178.63 15.575C178.63 16.1583 178.438 16.625 178.055 16.975C177.672 17.3083 177.147 17.475 176.48 17.475ZM188.845 19.425C189.912 19.425 190.853 19.6833 191.67 20.2C192.487 20.7167 193.12 21.4583 193.57 22.425C194.037 23.375 194.27 24.4833 194.27 25.75C194.27 27.0167 194.037 28.1417 193.57 29.125C193.12 30.0917 192.478 30.85 191.645 31.4C190.828 31.9333 189.895 32.2 188.845 32.2C187.995 32.2 187.228 32.025 186.545 31.675C185.862 31.3083 185.337 30.8083 184.97 30.175V30.375C184.97 30.9083 184.803 31.3417 184.47 31.675C184.137 31.9917 183.687 32.15 183.12 32.15C182.553 32.15 182.095 31.9917 181.745 31.675C181.412 31.3417 181.245 30.9083 181.245 30.375V15.975C181.245 15.4583 181.42 15.0417 181.77 14.725C182.137 14.4083 182.612 14.25 183.195 14.25C183.745 14.25 184.187 14.4 184.52 14.7C184.853 15 185.02 15.4 185.02 15.9V21.375C185.387 20.7583 185.903 20.2833 186.57 19.95C187.253 19.6 188.012 19.425 188.845 19.425ZM187.745 29.325C188.628 29.325 189.312 29.0167 189.795 28.4C190.278 27.7667 190.52 26.8833 190.52 25.75C190.52 24.6333 190.278 23.7833 189.795 23.2C189.312 22.6 188.628 22.3 187.745 22.3C186.862 22.3 186.178 22.6083 185.695 23.225C185.212 23.825 184.97 24.6833 184.97 25.8C184.97 26.9333 185.212 27.8083 185.695 28.425C186.178 29.025 186.862 29.325 187.745 29.325ZM202.102 19.425C203.902 19.425 205.235 19.8667 206.102 20.75C206.969 21.6167 207.402 22.95 207.402 24.75V30.4C207.402 30.95 207.244 31.3833 206.927 31.7C206.61 32 206.169 32.15 205.602 32.15C205.069 32.15 204.635 31.9917 204.302 31.675C203.985 31.3417 203.827 30.9167 203.827 30.4V30.225C203.577 30.8417 203.16 31.325 202.577 31.675C201.994 32.025 201.31 32.2 200.527 32.2C199.694 32.2 198.935 32.0333 198.252 31.7C197.585 31.3667 197.052 30.9 196.652 30.3C196.269 29.7 196.077 29.0333 196.077 28.3C196.077 27.4 196.302 26.6917 196.752 26.175C197.219 25.6583 197.96 25.2833 198.977 25.05C199.994 24.8167 201.385 24.7 203.152 24.7H203.802V24.25C203.802 23.55 203.644 23.0417 203.327 22.725C203.027 22.4083 202.519 22.25 201.802 22.25C201.085 22.25 200.052 22.5 198.702 23C198.319 23.1833 197.994 23.275 197.727 23.275C197.36 23.275 197.069 23.15 196.852 22.9C196.635 22.6333 196.527 22.2917 196.527 21.875C196.527 21.5417 196.602 21.2667 196.752 21.05C196.902 20.8333 197.144 20.6333 197.477 20.45C198.06 20.1333 198.769 19.8833 199.602 19.7C200.452 19.5167 201.285 19.425 202.102 19.425ZM201.352 29.6C202.085 29.6 202.677 29.3583 203.127 28.875C203.577 28.375 203.802 27.7333 203.802 26.95V26.525H203.377C202.027 26.525 201.077 26.6333 200.527 26.85C199.994 27.0667 199.727 27.4583 199.727 28.025C199.727 28.4917 199.877 28.875 200.177 29.175C200.494 29.4583 200.885 29.6 201.352 29.6Z" fill="white"/>
<path d="M219.457 32.15C218.857 32.15 218.382 31.975 218.032 31.625C217.682 31.275 217.507 30.8 217.507 30.2V16.175C217.507 15.5917 217.682 15.125 218.032 14.775C218.382 14.425 218.857 14.25 219.457 14.25C220.057 14.25 220.532 14.425 220.882 14.775C221.232 15.125 221.407 15.5917 221.407 16.175V30.2C221.407 30.8 221.232 31.275 220.882 31.625C220.532 31.975 220.057 32.15 219.457 32.15ZM232.304 19.425C233.771 19.425 234.863 19.8583 235.579 20.725C236.296 21.575 236.654 22.8667 236.654 24.6V30.375C236.654 30.925 236.479 31.3583 236.129 31.675C235.796 31.9917 235.338 32.15 234.754 32.15C234.171 32.15 233.713 31.9917 233.379 31.675C233.046 31.3583 232.879 30.925 232.879 30.375V24.775C232.879 23.9417 232.721 23.3333 232.404 22.95C232.104 22.5667 231.629 22.375 230.979 22.375C230.196 22.375 229.563 22.625 229.079 23.125C228.613 23.625 228.379 24.2917 228.379 25.125V30.375C228.379 30.925 228.213 31.3583 227.879 31.675C227.546 31.9917 227.088 32.15 226.504 32.15C225.921 32.15 225.454 31.9917 225.104 31.675C224.771 31.3583 224.604 30.925 224.604 30.375V21.2C224.604 20.6833 224.779 20.2667 225.129 19.95C225.496 19.6333 225.963 19.475 226.529 19.475C227.046 19.475 227.463 19.6333 227.779 19.95C228.113 20.25 228.279 20.6417 228.279 21.125V21.475C228.713 20.8083 229.271 20.3 229.954 19.95C230.654 19.6 231.438 19.425 232.304 19.425ZM249.397 19.475C249.981 19.475 250.439 19.6333 250.772 19.95C251.122 20.2667 251.297 20.7 251.297 21.25V30.425C251.297 30.9417 251.114 31.3583 250.747 31.675C250.397 31.9917 249.939 32.15 249.372 32.15C248.839 32.15 248.414 32 248.097 31.7C247.781 31.4 247.622 31 247.622 30.5V30.25C247.239 30.8833 246.731 31.3667 246.097 31.7C245.481 32.0333 244.781 32.2 243.997 32.2C242.447 32.2 241.289 31.775 240.522 30.925C239.772 30.0583 239.397 28.7583 239.397 27.025V21.25C239.397 20.7 239.564 20.2667 239.897 19.95C240.247 19.6333 240.714 19.475 241.297 19.475C241.881 19.475 242.339 19.6333 242.672 19.95C243.006 20.2667 243.172 20.7 243.172 21.25V27.1C243.172 27.8333 243.322 28.375 243.622 28.725C243.939 29.075 244.414 29.25 245.047 29.25C245.781 29.25 246.372 29 246.822 28.5C247.289 28 247.522 27.3417 247.522 26.525V21.25C247.522 20.7 247.689 20.2667 248.022 19.95C248.356 19.6333 248.814 19.475 249.397 19.475Z" fill="#E11D2E"/>
<rect width="50" height="50" rx="15" fill="#E22F2F"/>
<g opacity="0.300003">
<g opacity="0.300003">
<path opacity="0.300003" d="M43 35.8232C43 36.3793 35.165 36.8301 25.5 36.8301C15.835 36.8301 8 36.3793 8 35.8232C8 35.2671 15.835 34.8163 25.5 34.8163C35.165 34.8163 43 35.2671 43 35.8232Z" fill="#000072"/>
</g>
</g>
<path d="M40.2299 34.563C39.5354 35.2852 38.5166 35.6914 37.4527 35.6914H13.5458C12.4819 35.6914 11.463 35.2852 10.7685 34.563C10.3848 34.1638 10.1012 33.7191 9.91043 33.2642C9.90971 33.2642 9.90971 33.2642 9.90971 33.2636C9.30954 31.836 9.61534 30.3039 10.5728 29.7528C12.1804 28.8263 13.42 29.9585 13.42 29.9585C13.5572 29.6695 13.743 29.419 13.9509 29.2044C14.734 28.3932 15.8314 28.0843 15.8314 28.0843C15.2348 25.0157 16.5666 22.2355 16.5666 22.2355C16.5666 22.2355 19.8483 24.4595 25.4992 24.4595C31.1501 24.4595 34.4318 22.2355 34.4318 22.2355C34.4318 22.2355 35.7636 25.0157 35.167 28.0843C35.167 28.0843 36.924 28.579 37.5784 29.9585C37.5784 29.9585 38.8181 28.8263 40.4257 29.7528C41.6882 30.4801 41.8175 32.9131 40.2299 34.563Z" fill="#B11313"/>
<g opacity="0.300003">
<g opacity="0.300003">
<path opacity="0.300003" d="M14.377 32.7871C14.5985 30.8642 13.4238 30.0344 13.4238 30.0344C13.561 29.7454 13.7468 29.4949 13.9547 29.2802C15.7767 31.2345 14.377 32.7871 14.377 32.7871Z" fill="#000072"/>
</g>
</g>
<g opacity="0.300003">
<g opacity="0.300003">
<path opacity="0.300003" d="M36.6347 32.7871C36.4132 30.8642 37.5878 30.0344 37.5878 30.0344C37.4506 29.7454 37.2649 29.4949 37.057 29.2802C35.235 31.2345 36.6347 32.7871 36.6347 32.7871Z" fill="#000072"/>
</g>
</g>
<g opacity="0.300003">
<g opacity="0.300003">
<path opacity="0.300003" d="M36.8213 34.4016C36.651 34.3636 36.4755 34.3505 36.3012 34.3677C36.0527 34.3921 35.6252 34.4301 34.9982 34.4722C34.0545 34.5357 33.2303 33.8997 33.1659 33.053C33.1382 32.6892 33.1989 32.4068 33.2209 32.3194C32.9745 33.2642 32.5194 34.1346 32.242 34.6119C30.8335 34.6646 29.0495 34.7074 26.8434 34.72C26.7244 30.8972 29.2007 27.3127 29.2007 27.3127C25.4065 30.0347 21.8108 27.3127 21.8108 27.3127C24.3144 31.2979 24.1841 34.554 24.1841 34.554L24.6057 34.7221C22.1966 34.713 20.2699 34.668 18.7695 34.612C18.492 34.1346 18.037 33.2642 17.7905 32.3194C17.8134 32.4103 17.8781 32.7122 17.8417 33.0972C17.7634 33.9258 16.9385 34.5345 16.0139 34.4723C15.3865 34.4301 14.9588 34.3922 14.7103 34.3677C14.5359 34.3505 14.3604 34.3636 14.1902 34.4016C11.47 35.0089 9.96259 33.3938 9.91406 33.3404C10.1048 33.7953 10.3885 34.24 10.7722 34.6392C11.4667 35.3613 12.4855 35.7676 13.5494 35.7676H25.5057H37.462C38.5259 35.7676 39.5448 35.3613 40.2393 34.6392C40.6229 34.24 40.9066 33.7953 41.0974 33.3404C41.0488 33.3938 39.5415 35.0089 36.8213 34.4016Z" fill="#000072"/>
</g>
</g>
<g opacity="0.300003">
<g opacity="0.300003">
<path opacity="0.300003" d="M17.785 32.3184C17.7803 32.2997 17.7773 32.2895 17.7773 32.2895C17.7798 32.2992 17.7825 32.3087 17.785 32.3184Z" fill="#000072"/>
</g>
</g>
<g opacity="0.300003">
<g opacity="0.300003">
<path opacity="0.300003" d="M33.2207 32.3184C33.2232 32.3087 33.2259 32.2992 33.2283 32.2895C33.2283 32.2895 33.2254 32.2997 33.2207 32.3184Z" fill="#000072"/>
</g>
</g>
<path d="M25.4962 35.544H37.4526C38.4556 35.544 39.3995 35.1609 40.0424 34.4928C40.873 33.6296 41.2825 32.4344 41.1113 31.3734C41.011 30.7523 40.7124 30.2569 40.2919 30.0145C38.8701 29.1948 37.7997 30.1483 37.7548 30.1893C37.6969 30.2422 37.6134 30.2659 37.532 30.2519C37.4508 30.2381 37.3825 30.1888 37.3502 30.1206C36.7473 28.8497 35.109 28.376 35.0925 28.3714C34.974 28.338 34.9013 28.231 34.9227 28.1213C35.3971 25.6827 34.6134 23.4011 34.3133 22.6535C33.4148 23.1803 30.3231 24.7567 25.4991 24.7567C20.6751 24.7567 17.5833 23.1803 16.6849 22.6535C16.3848 23.4011 15.601 25.6827 16.0755 28.1213C16.0968 28.231 16.0242 28.338 15.9056 28.3714C15.8894 28.376 14.2484 28.8547 13.648 30.1206C13.6156 30.1888 13.5474 30.2381 13.4661 30.2519C13.3849 30.2658 13.3013 30.2422 13.2433 30.1893C13.1986 30.149 12.119 29.2 10.7063 30.0145C10.2858 30.2569 9.98712 30.7523 9.88689 31.3734C9.71567 32.4344 10.1252 33.6297 10.9557 34.4928C11.5986 35.1609 12.5426 35.544 13.5456 35.544H25.4962ZM37.4526 35.9883H13.5456C12.3984 35.9883 11.3178 35.549 10.5807 34.783C9.65915 33.8253 9.20543 32.4944 9.39662 31.3098C9.51918 30.5502 9.88916 29.9574 10.4384 29.6408C11.7455 28.8873 12.8484 29.3794 13.3331 29.6859C13.9478 28.6765 15.0884 28.1814 15.5539 28.0142C15.0355 24.9912 16.2844 22.3362 16.3388 22.2225C16.3689 22.1597 16.4294 22.1129 16.503 22.0955C16.5767 22.078 16.6551 22.0918 16.7158 22.133C16.7479 22.1546 20.0067 24.3124 25.4991 24.3124C30.9915 24.3124 34.2503 22.1546 34.2826 22.1328C34.3434 22.0918 34.4219 22.078 34.4953 22.0955C34.5688 22.1131 34.6293 22.1598 34.6593 22.2225C34.7138 22.3362 35.9626 24.9912 35.4442 28.0142C35.9098 28.1814 37.0504 28.6765 37.6651 29.6859C38.1497 29.3794 39.2525 28.8871 40.5598 29.6408C41.109 29.9574 41.479 30.5501 41.6016 31.3098C41.7928 32.4944 41.339 33.8253 40.4175 34.783C39.6804 35.549 38.5997 35.9883 37.4526 35.9883Z" fill="#000072"/>
<path d="M13.5599 29.8531C13.5871 29.8697 13.5998 29.8789 13.6185 29.8913C13.6362 29.9031 13.6506 29.9143 13.6668 29.926C13.6989 29.9493 13.7261 29.9739 13.7553 29.9981C13.7851 30.0219 13.8097 30.0482 13.8365 30.0736C13.8635 30.0989 13.8888 30.125 13.9125 30.1519C14.0112 30.258 14.0942 30.3723 14.1682 30.4904C14.3165 30.7265 14.415 30.9811 14.4835 31.2374C14.5503 31.4949 14.575 31.7562 14.575 32.0143C14.5755 32.1432 14.5595 32.2718 14.5497 32.3989C14.5283 32.5259 14.505 32.6517 14.4754 32.7759C14.4697 32.7995 14.4437 32.8146 14.4173 32.8096C14.3973 32.8057 14.3827 32.7913 14.3794 32.7743L14.3788 32.7712C14.3545 32.6465 14.3394 32.5236 14.3212 32.4018L14.2857 32.2205C14.2727 32.1606 14.2678 32.1 14.2501 32.0412C14.2168 31.9235 14.199 31.8045 14.157 31.6908C14.1387 31.6335 14.1243 31.5755 14.1044 31.5192L14.0405 31.352C13.9524 31.1314 13.8448 30.9204 13.7151 30.7254C13.6813 30.6776 13.6497 30.6282 13.613 30.5829L13.56 30.5134L13.5031 30.4474C13.467 30.4019 13.4252 30.3619 13.386 30.3208C13.3658 30.3013 13.3458 30.2801 13.3254 30.2628C13.3156 30.2539 13.3052 30.2433 13.2959 30.2356C13.2877 30.2284 13.2742 30.2171 13.2733 30.2154L13.2198 30.1191C13.1624 30.0157 13.2093 29.8902 13.3246 29.8387C13.4027 29.8038 13.4925 29.8121 13.5599 29.8531Z" fill="#000072"/>
<path d="M37.7139 30.2154C37.7129 30.2171 37.6994 30.2284 37.6912 30.2356C37.682 30.2433 37.6715 30.2539 37.6617 30.2628C37.6413 30.2802 37.6213 30.3013 37.6011 30.3208C37.5619 30.3619 37.5201 30.4019 37.484 30.4474L37.4272 30.5134L37.3741 30.5829C37.3374 30.6282 37.3058 30.6776 37.272 30.7254C37.1423 30.9205 37.0347 31.1314 36.9466 31.352L36.8827 31.5192C36.8628 31.5755 36.8485 31.6335 36.8302 31.6908C36.7882 31.8045 36.7703 31.9235 36.7371 32.0412C36.7193 32.1 36.7144 32.1606 36.7015 32.2205L36.666 32.4018C36.6477 32.5236 36.6326 32.6465 36.6083 32.7712L36.6077 32.7742C36.6031 32.7981 36.5778 32.8141 36.5512 32.8099C36.5309 32.8067 36.5158 32.7928 36.5117 32.7759C36.4821 32.6518 36.4588 32.5259 36.4374 32.3989C36.4277 32.2718 36.4116 32.1432 36.4121 32.0143C36.4122 31.7562 36.4368 31.4949 36.5036 31.2375C36.5721 30.9811 36.6706 30.7265 36.8189 30.4904C36.8929 30.3723 36.9759 30.258 37.0746 30.1519C37.0983 30.125 37.1237 30.0989 37.1506 30.0736C37.1774 30.0482 37.202 30.0219 37.2318 29.9981C37.261 29.9739 37.2882 29.9493 37.3204 29.926C37.3366 29.9143 37.3509 29.9031 37.3686 29.8913C37.3874 29.8789 37.4 29.8697 37.4272 29.8531C37.5337 29.788 37.6787 29.8127 37.7513 29.9082C37.8004 29.9728 37.8036 30.0534 37.7675 30.1189L37.7139 30.2154Z" fill="#000072"/>
<path d="M16.079 28.1339L16.0991 28.3114L16.1244 28.51C16.1332 28.5776 16.1451 28.6455 16.1516 28.7167C16.1588 28.7877 16.1631 28.8614 16.1591 28.9409L16.1591 28.9412C16.1585 28.9538 16.1467 28.9634 16.1327 28.9629C16.1277 28.9626 16.1231 28.9612 16.1193 28.9587C16.0466 28.9128 15.9839 28.8601 15.9297 28.8026C15.8742 28.7456 15.8288 28.6833 15.7845 28.6195C15.7412 28.5553 15.7018 28.4885 15.6675 28.4186C15.6514 28.3833 15.6346 28.3478 15.6216 28.3104C15.6146 28.2919 15.6083 28.2728 15.6026 28.2532C15.5965 28.2321 15.5924 28.2166 15.5871 28.1867C15.5656 28.0655 15.6578 27.9515 15.793 27.9323C15.9281 27.913 16.0552 27.9957 16.0766 28.1169C16.0773 28.1208 16.0779 28.1247 16.0783 28.1285L16.079 28.1339Z" fill="#000072"/>
<path d="M35.4173 28.1867C35.412 28.2166 35.4079 28.2321 35.4018 28.2532C35.3961 28.2728 35.3898 28.2919 35.3828 28.3104C35.3698 28.3478 35.3531 28.3833 35.3369 28.4186C35.3026 28.4885 35.2632 28.5553 35.2199 28.6195C35.1756 28.6833 35.1302 28.7456 35.0747 28.8026C35.0205 28.8601 34.9579 28.9128 34.8851 28.9587C34.8737 28.966 34.8579 28.9635 34.8499 28.9533C34.847 28.9496 34.8455 28.9454 34.8453 28.9412L34.8453 28.9409C34.8413 28.8614 34.8456 28.7878 34.8529 28.7167C34.8594 28.6455 34.8712 28.5776 34.8801 28.51L34.9053 28.3114L34.9255 28.1339L34.926 28.1293C34.9399 28.0071 35.0615 27.9182 35.1977 27.9307C35.3339 27.9431 35.433 28.0522 35.4191 28.1743C35.4187 28.1782 35.418 28.1828 35.4173 28.1867Z" fill="#000072"/>
<path d="M17.2775 30.3362C17.2775 30.3362 16.1436 29.5476 15.8297 28.1608C15.8297 28.1608 15.1774 27.8652 14.7266 28.6652C14.7266 28.6652 15.2466 31.1075 17.7774 32.291C17.7774 32.291 17.4117 31.0337 17.2775 30.3362Z" fill="#0096F2"/>
<path d="M14.9883 28.6975C15.0904 29.0704 15.6404 30.7734 17.3909 31.8279C17.2801 31.4248 17.1333 30.8678 17.0492 30.4555C16.7866 30.2515 15.9319 29.5132 15.6179 28.3327C15.4754 28.3107 15.2187 28.3364 14.9883 28.6975ZM17.777 32.5137C17.7379 32.5137 17.6986 32.5054 17.6625 32.4885C15.0555 31.2693 14.5051 28.8114 14.4829 28.7074C14.4727 28.6592 14.4805 28.6093 14.5052 28.5655C14.7868 28.0658 15.155 27.9242 15.4143 27.8934C15.7013 27.859 15.9174 27.9524 15.9411 27.9631C16.0088 27.9938 16.0571 28.0506 16.0721 28.1172C16.3628 29.4014 17.4187 30.154 17.4293 30.1614C17.4777 30.1954 17.5108 30.2446 17.5212 30.299C17.6521 30.9792 18.0131 32.223 18.0167 32.2355C18.0414 32.3204 18.0079 32.4105 17.9313 32.4653C17.8866 32.4973 17.832 32.5137 17.777 32.5137Z" fill="#000072"/>
<path d="M33.7264 30.3362C33.7264 30.3362 34.8603 29.5476 35.1742 28.1608C35.1742 28.1608 35.8265 27.8652 36.2774 28.6652C36.2774 28.6652 35.7573 31.1075 33.2266 32.291C33.2266 32.291 33.5923 31.0337 33.7264 30.3362Z" fill="#0096F2"/>
<path d="M33.9521 30.4555C33.8679 30.8679 33.7211 31.4248 33.6103 31.8279C35.3608 30.7735 35.9108 29.0707 36.013 28.6975C35.8735 28.4782 35.7085 28.3559 35.5218 28.3338C35.4695 28.3275 35.4215 28.3301 35.3825 28.3357C35.0679 29.5145 34.2145 30.2516 33.9521 30.4555ZM33.2243 32.5137C33.1693 32.5137 33.1147 32.4973 33.07 32.4653C32.9933 32.4105 32.9599 32.3204 32.9846 32.2355C32.9882 32.223 33.3492 30.9792 33.48 30.299C33.4905 30.2444 33.5233 30.1954 33.572 30.1614C33.5826 30.154 34.6385 29.4014 34.9291 28.1172C34.9442 28.0506 34.9925 27.9938 35.0602 27.9632C35.0838 27.9524 35.2999 27.859 35.5869 27.8934C35.8462 27.9242 36.2145 28.0658 36.4961 28.5655C36.5208 28.6093 36.5286 28.6592 36.5184 28.7074C36.4962 28.8114 35.9458 31.2693 33.3388 32.4885C33.3027 32.5053 33.2634 32.5137 33.2243 32.5137Z" fill="#000072"/>
<path d="M20.6953 24.6621C20.6953 24.6621 21.121 25.7444 20.9985 27.3234L22.4013 28.418C22.4013 28.418 22.7678 26.5103 22.1435 24.9259L20.6953 24.6621Z" fill="#0096F2"/>
<path d="M21.2491 27.2264L22.2083 27.9749C22.2732 27.3661 22.3286 26.1726 21.95 25.1167L21.039 24.9507C21.1568 25.3901 21.3139 26.1983 21.2491 27.2264ZM22.3969 28.6387C22.3381 28.6387 22.2801 28.6198 22.2343 28.5841L20.8316 27.4896C20.773 27.4438 20.7417 27.3761 20.7471 27.3066C20.8642 25.7977 20.4614 24.7448 20.4573 24.7344C20.4278 24.659 20.4458 24.575 20.5044 24.5148C20.563 24.4547 20.6532 24.4275 20.7403 24.443L22.1884 24.7068C22.2737 24.7223 22.3437 24.7769 22.3726 24.8504C23.0112 26.4709 22.6564 28.3741 22.641 28.4543C22.6258 28.5333 22.5643 28.5989 22.48 28.6258C22.4529 28.6344 22.4248 28.6387 22.3969 28.6387Z" fill="#000072"/>
<path d="M30.307 24.6621C30.307 24.6621 29.8813 25.7444 30.0038 27.3234L28.6011 28.418C28.6011 28.418 28.2345 26.5103 28.8588 24.9259L30.307 24.6621Z" fill="#0096F2"/>
<path d="M29.0492 25.1167C28.6699 26.1745 28.7254 27.367 28.7906 27.9751L29.7501 27.2264C29.6853 26.1983 29.8424 25.3901 29.9601 24.9507L29.0492 25.1167ZM28.6023 28.6387C28.5744 28.6387 28.5463 28.6344 28.5192 28.6258C28.4349 28.5989 28.3734 28.5333 28.3582 28.4543C28.3428 28.3741 27.988 26.4709 28.6265 24.8504C28.6555 24.7769 28.7255 24.7223 28.8108 24.7068L30.2589 24.443C30.3463 24.4269 30.4366 24.4546 30.4951 24.5149C30.5536 24.5752 30.5714 24.6591 30.5419 24.7345C30.5354 24.7511 30.1354 25.8022 30.2521 27.3066C30.2575 27.3761 30.2262 27.4438 30.1676 27.4896L28.7649 28.5841C28.7191 28.6198 28.6611 28.6387 28.6023 28.6387Z" fill="#000072"/>
<path d="M24.1011 35.0727C23.7481 36.6272 21.7361 37.3384 20.3221 36.3856C19.2154 35.6404 18 33.936 17.2491 30.1984C17.1776 29.8402 17.1098 29.4628 17.0469 29.0662L17.5249 28.6599L20.6936 25.9649C20.6936 25.9649 23.8153 30.299 24.1611 33.6213V33.622C24.2154 34.1365 24.2025 34.6267 24.1011 35.0727Z" fill="#B11313"/>
<g opacity="0.300003">
<g opacity="0.300003">
<path opacity="0.300003" d="M24.1002 35.0727C23.7472 36.6272 21.7352 37.3384 20.3212 36.3856C19.2145 35.6404 17.9991 33.936 17.2482 30.1984C16.1915 29.6275 15.8285 28.1595 15.8285 28.1595C15.3726 26.2103 15.8985 24.4136 15.8985 24.4136C15.7984 26.7862 16.8485 27.9179 17.2816 28.2812C17.4023 28.3825 17.4866 28.513 17.5234 28.6575C17.5236 28.6583 17.5238 28.6591 17.524 28.6599C18.2978 31.7305 19.5939 35.4712 21.4744 35.7391C23.2899 35.9973 24.0723 33.8764 24.1602 33.622C24.2145 34.1365 24.2016 34.6267 24.1002 35.0727Z" fill="#000072"/>
</g>
</g>
<path d="M20.9664 25.7583C21.3272 26.1107 21.6125 26.5038 21.8712 26.9099C21.9996 27.1134 22.1167 27.3223 22.233 27.5314C22.3494 27.7405 22.4633 27.9508 22.5744 28.1624C23.0191 29.0083 23.424 29.8734 23.7603 30.7647C24.097 31.655 24.3681 32.5749 24.4669 33.5326C24.5145 34.0107 24.5174 34.4999 24.4268 34.9897C24.4072 35.1099 24.3785 35.2389 24.3344 35.3632C24.2944 35.4883 24.2377 35.6091 24.1762 35.7274C24.048 35.9622 23.8771 36.1786 23.6733 36.3659C23.2616 36.7366 22.7175 36.9866 22.1399 37.0601C21.8518 37.1005 21.5559 37.0917 21.2688 37.0461C20.9819 36.9972 20.7049 36.9048 20.4516 36.7776C20.3277 36.7119 20.203 36.6397 20.0953 36.5601L19.9339 36.4413C19.8793 36.4022 19.8325 36.3569 19.7816 36.315C19.7324 36.2717 19.6801 36.2306 19.6337 36.1853L19.4956 36.0489C19.4002 35.9599 19.3212 35.8611 19.2356 35.7662C18.9049 35.3795 18.6412 34.959 18.4097 34.5302C18.1744 34.1018 17.9945 33.6563 17.8203 33.211C17.6586 32.7623 17.5113 32.3105 17.3902 31.8541C17.3303 31.6259 17.266 31.3984 17.2171 31.1684C17.1668 30.9388 17.1065 30.7106 17.0699 30.479C16.9889 30.0169 16.9509 29.5485 16.9955 29.0734C16.998 29.0465 17.0243 29.0266 17.0543 29.0288C17.0751 29.0304 17.0923 29.0424 17.0999 29.0586L17.1005 29.06C17.2035 29.2808 17.2814 29.5036 17.3486 29.7275C17.4147 29.9517 17.4833 30.1744 17.5352 30.3998C17.5849 30.6258 17.6432 30.8495 17.698 31.074C17.75 31.2993 17.8171 31.5206 17.8797 31.7431C18.0063 32.1876 18.1577 32.6248 18.3219 33.0566C18.498 33.4836 18.6789 33.91 18.9089 34.3112C19.1342 34.714 19.3912 35.1005 19.6932 35.4486C19.7712 35.5333 19.8436 35.6233 19.9289 35.7008L20.0525 35.8212C20.0938 35.8612 20.1398 35.8959 20.1831 35.9336C20.2278 35.9697 20.2692 36.0099 20.3164 36.0427L20.4558 36.1436C20.5483 36.2111 20.6427 36.2634 20.7413 36.3156C20.9404 36.4133 21.1549 36.4829 21.3766 36.5193C21.5986 36.5523 21.827 36.5585 22.0501 36.525C22.4978 36.4657 22.919 36.266 23.2354 35.9786C23.393 35.8341 23.5253 35.6677 23.6253 35.4862C23.6727 35.3943 23.7179 35.301 23.749 35.2029C23.7839 35.1061 23.8063 35.0071 23.8243 34.8979C23.9046 34.4719 23.9054 34.0257 23.8621 33.5808C23.8182 33.1352 23.73 32.6892 23.6158 32.2471C23.5023 31.8046 23.3604 31.3658 23.2025 30.9311C22.886 30.0613 22.4992 29.2084 22.0716 28.3721C21.9648 28.1628 21.8551 27.9547 21.7431 27.7477C21.6315 27.5403 21.5141 27.3356 21.4053 27.1268C21.1856 26.7103 20.9787 26.2869 20.8154 25.8393L20.8149 25.8378C20.7995 25.7955 20.8252 25.75 20.8723 25.7362C20.9069 25.7261 20.9433 25.7358 20.9664 25.7583Z" fill="#000072"/>
<path d="M17.9431 33.0098C17.8764 33.0098 17.8098 32.9858 17.761 32.9384C17.6683 32.8483 17.6744 32.7079 17.7748 32.6247C17.8667 32.5485 20.0637 30.7561 23.4275 30.5306C23.5635 30.5207 23.6827 30.6132 23.6929 30.7355C23.7031 30.8578 23.6008 30.9645 23.4644 30.9736C20.2791 31.1872 18.1323 32.9334 18.111 32.9509C18.0634 32.9903 18.0031 33.0098 17.9431 33.0098Z" fill="#000072"/>
<path d="M26.9002 35.0746C27.2532 36.6291 29.2652 37.3404 30.6792 36.3875C31.786 35.6423 33.0013 33.9379 33.7522 30.2004C33.8237 29.8422 33.8916 29.4648 33.9544 29.0681L33.4764 28.6619L30.3077 25.9668C30.3077 25.9668 27.186 30.301 26.8402 33.6233V33.6239C26.7859 34.1385 26.7988 34.6287 26.9002 35.0746Z" fill="#B11313"/>
<g opacity="0.300003">
<g opacity="0.300003">
<path opacity="0.300003" d="M26.8924 35.0727C27.2454 36.6272 29.2574 37.3384 30.6714 36.3856C31.7781 35.6404 32.9935 33.936 33.7444 30.1984C34.8012 29.6275 35.1641 28.1595 35.1641 28.1595C35.62 26.2103 35.0941 24.4136 35.0941 24.4136C35.1942 26.7862 34.1441 27.9179 33.711 28.2812C33.5904 28.3825 33.506 28.513 33.4693 28.6575C33.469 28.6583 33.4688 28.6591 33.4686 28.6599C32.6948 31.7305 31.3987 35.4712 29.5182 35.7391C27.7027 35.9973 26.9203 33.8764 26.8324 33.622C26.7781 34.1365 26.791 34.6267 26.8924 35.0727Z" fill="#000072"/>
</g>
</g>
<path d="M30.1861 25.8393C30.0229 26.2869 29.8159 26.7103 29.5962 27.1268C29.4875 27.3356 29.37 27.5403 29.2585 27.7477C29.1464 27.9547 29.0367 28.1628 28.93 28.3721C28.5024 29.2084 28.1156 30.0613 27.7991 30.9311C27.6411 31.3658 27.4993 31.8046 27.3858 32.2471C27.2716 32.6892 27.1834 33.1352 27.1395 33.5808C27.0962 34.0257 27.097 34.4719 27.1773 34.8979C27.1953 35.0071 27.2176 35.1061 27.2526 35.2029C27.2837 35.301 27.3289 35.3943 27.3762 35.4862C27.4763 35.6677 27.6086 35.8341 27.7662 35.9786C28.0826 36.266 28.5038 36.4657 28.9515 36.525C29.1746 36.5585 29.403 36.5523 29.625 36.5192C29.8467 36.4829 30.0612 36.4133 30.2603 36.3156C30.3589 36.2634 30.4533 36.2111 30.5457 36.1436L30.6852 36.0427C30.7324 36.0099 30.7738 35.9697 30.8185 35.9337C30.8618 35.8959 30.9078 35.8612 30.9491 35.8212L31.0727 35.7008C31.158 35.6233 31.2303 35.5333 31.3084 35.4486C31.6104 35.1005 31.8674 34.714 32.0927 34.3112C32.3227 33.91 32.5036 33.4836 32.6797 33.0566C32.8439 32.6248 32.9953 32.1876 33.1219 31.7431C33.1845 31.5206 33.2515 31.2993 33.3036 31.074C33.3584 30.8495 33.4166 30.6258 33.4663 30.3998C33.5183 30.1744 33.5868 29.9517 33.653 29.7275C33.7202 29.5035 33.7981 29.2808 33.9011 29.06L33.9017 29.0586C33.9133 29.0338 33.9452 29.022 33.9729 29.0324C33.9922 29.0397 34.0044 29.0559 34.0061 29.0734C34.0507 29.5485 34.0127 30.0169 33.9316 30.479C33.895 30.7106 33.8347 30.9387 33.7844 31.1684C33.7356 31.3984 33.6713 31.6259 33.6114 31.8541C33.4903 32.3105 33.343 32.7623 33.1813 33.211C33.0071 33.6563 32.8272 34.1018 32.5919 34.5302C32.3604 34.959 32.0966 35.3795 31.766 35.7662C31.6804 35.8611 31.6013 35.9599 31.506 36.0489L31.3678 36.1853C31.3215 36.2306 31.2692 36.2717 31.22 36.315C31.169 36.3569 31.1222 36.4022 31.0677 36.4413L30.9063 36.5601C30.7986 36.6396 30.6739 36.7119 30.5499 36.7776C30.2967 36.9048 30.0196 36.9972 29.7327 37.0461C29.4456 37.0917 29.1498 37.1005 28.8617 37.0601C28.2841 36.9867 27.74 36.7366 27.3282 36.3659C27.1245 36.1786 26.9536 35.9622 26.8253 35.7274C26.7639 35.6091 26.7071 35.4883 26.6671 35.3632C26.623 35.239 26.5944 35.1099 26.5748 34.9897C26.4842 34.4999 26.4871 34.0107 26.5346 33.5326C26.6335 32.5749 26.9046 31.655 27.2412 30.7647C27.5776 29.8734 27.9825 29.0083 28.4272 28.1624C28.5382 27.9508 28.6522 27.7405 28.7685 27.5314C28.8849 27.3222 29.002 27.1134 29.1304 26.9099C29.3891 26.5038 29.6743 26.1107 30.0351 25.7583C30.0687 25.7255 30.1255 25.7233 30.162 25.7534C30.1888 25.7755 30.1973 25.8087 30.1867 25.8378L30.1861 25.8393Z" fill="#000072"/>
<path d="M33.0592 33.0098C32.9991 33.0098 32.9388 32.9903 32.8912 32.9508C32.8699 32.9332 30.7231 31.187 27.5378 30.9735C27.4014 30.9643 27.2991 30.8577 27.3093 30.7354C27.3195 30.613 27.4385 30.5207 27.5747 30.5304C30.9385 30.756 33.1355 32.5483 33.2274 32.6246C33.3278 32.7078 33.334 32.8484 33.2411 32.9384C33.1923 32.9858 33.1258 33.0098 33.0592 33.0098Z" fill="#000072"/>
<path d="M25.5041 23.8194C31.982 23.8194 34.5541 21.2816 34.5541 21.2816C34.5541 21.2816 34.662 21.5001 34.7145 21.8107C34.8015 22.3249 34.558 22.8408 34.0943 23.1532C33.075 23.8399 30.4796 25.1484 25.5007 25.1484C20.5219 25.1484 17.9264 23.8399 16.9072 23.1532C16.4435 22.8408 16.2 22.3249 16.287 21.8107C16.3395 21.5001 16.4474 21.2816 16.4474 21.2816C16.4474 21.2816 19.0195 23.8194 25.4974 23.8194" fill="#751313"/>
<g opacity="0.300003">
<g opacity="0.300003">
<path opacity="0.300003" d="M34.6928 21.6917C34.6094 22.0142 34.4008 22.3073 34.0962 22.5124C33.077 23.1992 30.4816 24.5077 25.5027 24.5077C20.5238 24.5077 17.9284 23.1992 16.9091 22.5124C16.6046 22.3073 16.3959 22.0142 16.3126 21.6917C16.304 21.7296 16.2959 21.7692 16.2889 21.8107C16.2019 22.3249 16.4454 22.8408 16.9091 23.1532C17.9284 23.8399 20.5238 25.1484 25.5027 25.1484C30.4816 25.1484 33.077 23.8399 34.0962 23.1532C34.5599 22.8408 34.8034 22.3249 34.7165 21.8107C34.7094 21.7692 34.7014 21.7296 34.6928 21.6917Z" fill="#000072"/>
</g>
</g>
<path d="M25.5005 25.3711C20.5283 25.3711 17.889 24.0931 16.7582 23.3313C16.2161 22.966 15.9416 22.3708 16.0419 21.778C16.0987 21.4417 16.2158 21.2022 16.2207 21.1922C16.2547 21.1235 16.325 21.0748 16.4076 21.0629C16.4902 21.0507 16.5741 21.0771 16.6305 21.1327C16.6553 21.157 19.2231 23.5978 25.4972 23.5978V24.0421C20.1385 24.0421 17.4203 22.3469 16.565 21.6867C16.5527 21.7354 16.5412 21.7883 16.5316 21.8445C16.4587 22.2755 16.6596 22.7092 17.0558 22.9761C18.1371 23.7046 20.6722 24.9268 25.5005 24.9268C30.3289 24.9268 32.864 23.7046 33.9454 22.9761C34.3415 22.7092 34.5423 22.2756 34.4694 21.8445C34.4599 21.7883 34.4484 21.7354 34.436 21.6867C33.5808 22.3469 30.8625 24.0421 25.5039 24.0421V23.5978C31.7993 23.5978 34.3456 21.1573 34.3706 21.1327C34.4269 21.0771 34.5108 21.0508 34.5934 21.0629C34.6761 21.0748 34.7464 21.1235 34.7803 21.1922C34.7853 21.2022 34.9024 21.4417 34.9592 21.778C35.0595 22.3708 34.785 22.9661 34.2429 23.3313C33.1122 24.0931 30.4728 25.3711 25.5005 25.3711Z" fill="#000072"/>
<path d="M16.457 23.1606L20.4511 31.3145" stroke="#000072" stroke-width="0.2" stroke-miterlimit="10"/>
<path d="M30.3848 31.3145L34.4636 23.1606" stroke="#000072" stroke-width="0.2" stroke-miterlimit="10"/>
<path fill-rule="evenodd" clip-rule="evenodd" d="M25.2077 26.4895C25.2061 26.5091 25.1928 26.5267 25.1839 26.546C25.1754 26.5647 25.1675 26.5848 25.1601 26.6044C25.1408 26.6556 25.1228 26.706 25.1244 26.7723C25.1903 26.7801 25.2733 26.7743 25.3327 26.7668C25.3652 26.7797 25.3861 26.7998 25.4161 26.8143C25.4104 26.7895 25.4375 26.7848 25.4607 26.7778C25.4504 26.7885 25.4344 26.7957 25.4399 26.8161C25.4534 26.8216 25.4556 26.8069 25.4667 26.8051C25.482 26.8158 25.5014 26.8153 25.5173 26.8051C25.5286 26.8067 25.5256 26.8171 25.5381 26.8179C25.5557 26.8037 25.5305 26.7883 25.5232 26.7778C25.5453 26.7849 25.5704 26.7902 25.5679 26.8124C25.5919 26.8034 25.6212 26.7819 25.6452 26.7668C25.7072 26.7748 25.7865 26.7785 25.8595 26.7741C25.857 26.6631 25.8131 26.5775 25.7702 26.4913C25.7821 26.4904 25.782 26.5 25.7851 26.5041C25.8294 26.5628 25.8688 26.6299 25.9012 26.7011C25.9059 26.7115 25.9138 26.7256 25.919 26.7395C25.9236 26.7516 25.9332 26.7728 25.9309 26.7796C25.9258 26.7946 25.8855 26.7996 25.8773 26.8124C25.8526 26.7945 25.7812 26.7997 25.7137 26.7978C25.6945 26.7973 25.6689 26.794 25.6571 26.796C25.6312 26.8006 25.6198 26.8238 25.6065 26.8362C25.6432 26.8377 25.6722 26.8159 25.7047 26.8143C25.7254 26.8132 25.7556 26.8227 25.7821 26.827C25.8588 26.8395 25.9444 26.85 26.0143 26.8635C26.0185 26.7168 25.957 26.5945 25.8744 26.495C25.9565 26.5644 26.0118 26.6457 26.0529 26.7413C26.06 26.7578 26.0662 26.7735 26.0708 26.7905C26.0773 26.8144 26.0776 26.844 26.0976 26.8617C26.0729 26.8782 26.0432 26.8916 26.0172 26.9073C25.9441 26.8806 25.8028 26.842 25.6839 26.8489C25.6554 26.8506 25.6303 26.8593 25.6095 26.8708C25.6458 26.8797 25.671 26.8806 25.7196 26.8799C25.7317 26.8798 25.7492 26.8767 25.7583 26.8781C25.7686 26.8797 25.7852 26.8928 25.8 26.9018C25.8859 26.9545 25.9628 26.9931 26.0648 27.035C26.0967 27.0481 26.1147 27.0614 26.1511 27.0442C26.1572 27.2173 26.0822 27.3451 25.9904 27.462C25.9797 27.4756 25.973 27.4914 25.9547 27.5021C26.0237 27.4023 26.0767 27.2836 26.0767 27.1445C26.0767 27.1299 26.0813 27.1117 26.0767 27.0989C26.0703 27.0807 26.0235 27.0613 25.9964 27.046C25.9195 27.0025 25.8583 26.9719 25.7732 26.931C25.7565 26.923 25.7423 26.9122 25.7286 26.9091C25.714 26.9059 25.6912 26.9052 25.675 26.9037C25.6547 26.9017 25.6352 26.9012 25.6184 26.9C25.6513 26.9217 25.7035 26.9486 25.7494 26.9693C25.7577 26.9739 25.7665 26.9677 25.7762 26.9675C25.787 27.1709 25.7624 27.3701 25.669 27.5185C25.6467 27.554 25.622 27.5887 25.5827 27.6152C25.7096 27.4748 25.7192 27.2336 25.6928 27.0223C25.7198 27.0079 25.7081 26.996 25.6839 26.9785C25.6575 26.9593 25.6105 26.9313 25.5798 26.9219C25.5776 26.9314 25.5829 26.9407 25.5887 26.9493C25.5945 26.9579 25.6074 26.9653 25.6095 26.973C25.614 26.9893 25.6032 27.0252 25.5976 27.0442C25.5792 27.1071 25.5404 27.1762 25.5053 27.223C25.493 27.222 25.5017 27.2082 25.4934 27.2047C25.4802 27.2051 25.4882 27.2186 25.4815 27.223C25.4406 27.1801 25.4056 27.1092 25.3863 27.0442C25.3794 27.0209 25.3687 26.993 25.3744 26.973C25.3789 26.9571 25.4068 26.9427 25.4042 26.9237C25.3769 26.9276 25.3515 26.9442 25.3298 26.9584C25.3081 26.9726 25.2856 26.9878 25.2703 27.004C25.2721 27.012 25.2848 27.0133 25.2881 27.0204C25.2686 27.2343 25.2692 27.475 25.4012 27.6134C25.3873 27.6122 25.3808 27.6014 25.3744 27.5952C25.2515 27.4747 25.2185 27.289 25.2048 27.0971C25.2017 27.0547 25.1986 27.0132 25.2077 26.9712C25.2103 26.9624 25.2256 26.9754 25.2345 26.9693C25.2815 26.9477 25.3238 26.9231 25.3685 26.9C25.3296 26.9037 25.2873 26.9025 25.2524 26.911C25.2221 26.9183 25.1889 26.9386 25.1601 26.9529C25.0728 26.9965 24.9807 27.0439 24.9072 27.0934C24.8922 27.2562 24.953 27.3874 25.0262 27.5021C24.9206 27.3758 24.8225 27.2354 24.8328 27.0442C24.873 27.0676 24.9343 27.0295 24.9667 27.015C25.0568 26.9745 25.153 26.9224 25.2226 26.8781C25.273 26.8827 25.3322 26.879 25.3744 26.8726C25.3218 26.8315 25.187 26.8522 25.1066 26.8672C25.0526 26.8772 25.0022 26.8917 24.9697 26.9073C24.9388 26.8946 24.9151 26.8775 24.8863 26.8635C24.9074 26.8311 24.9119 26.7765 24.928 26.7395C24.9673 26.6489 25.0287 26.5687 25.1036 26.495C25.1016 26.509 25.0858 26.521 25.0768 26.5333C25.0116 26.6222 24.9686 26.7324 24.9667 26.8617C25.0355 26.8521 25.1176 26.8403 25.1988 26.827C25.2253 26.8227 25.2527 26.8138 25.2732 26.8143C25.3063 26.815 25.3374 26.8359 25.3744 26.8362C25.3656 26.819 25.3488 26.8068 25.3298 26.796C25.2685 26.8003 25.2 26.7936 25.1453 26.7997C25.1397 26.8003 25.1324 26.8023 25.1244 26.8051C25.1251 26.8049 25.1067 26.8124 25.1095 26.8124C25.0972 26.8124 25.0669 26.786 25.053 26.7832C25.0816 26.6712 25.1461 26.5813 25.2077 26.4895Z" fill="#000072"/>
<path fill-rule="evenodd" clip-rule="evenodd" d="M25.502 25.371V28.5215V25.371Z" fill="#000072"/>
<path d="M25.502 25.371V28.5215" stroke="#000072" stroke-width="0.2" stroke-miterlimit="10"/>
<path d="M24.4042 25.349C24.4042 25.349 24.5973 27.9298 24.3145 28.3867" stroke="#000072" stroke-width="0.2" stroke-miterlimit="10"/>
<path d="M23.5376 25.3004C23.5376 25.3004 23.973 26.4945 23.3438 28.1074" stroke="#000072" stroke-width="0.2" stroke-miterlimit="10"/>
<path d="M26.5016 25.3702C26.5016 25.3702 26.2997 27.6569 26.5917 28.4355" stroke="#000072" stroke-width="0.2" stroke-miterlimit="10"/>
<path d="M27.531 25.3004C27.531 25.3004 27.0693 27.568 27.7548 28.1074" stroke="#000072" stroke-width="0.2" stroke-miterlimit="10"/>
<path d="M22.6367 25.7539C22.6367 25.7539 23.0715 25.3817 23.6426 25.7539C23.6426 25.7539 23.9403 25.3845 24.4353 25.8047C24.4353 25.8047 24.7052 25.3446 25.4998 25.7539C25.4998 25.7539 25.8352 25.3693 26.4368 25.7539C26.4368 25.7539 26.9095 25.3269 27.4632 25.7327C27.4632 25.7327 27.9568 25.2508 28.3842 25.6812" stroke="#000072" stroke-width="0.2" stroke-miterlimit="10"/>
<path d="M25.4377 26.3449C25.4221 26.335 25.4067 26.3257 25.3914 26.3169C24.8502 26.0058 24.4575 26.3535 24.4575 26.3535C24.056 25.9798 23.6837 26.3535 23.6837 26.3535C23.0596 25.7006 22.7227 26.3535 22.7227 26.3535" stroke="#000072" stroke-width="0.2" stroke-miterlimit="10"/>
<path d="M25.4219 26.3515C25.4219 26.3515 25.9152 25.9967 26.4342 26.3515C26.4342 26.3515 26.9384 25.9124 27.3799 26.3711C27.3799 26.3711 28.0352 25.9188 28.2796 26.362" stroke="#000072" stroke-width="0.2" stroke-miterlimit="10"/>
<path d="M22.7227 27.4431C22.7227 27.4431 23.1231 26.8515 23.5445 27.4933C23.5445 27.4933 24.3002 27.0251 24.461 27.679C24.461 27.679 25.0868 27.3937 25.5242 27.8633C25.5242 27.8633 25.9876 27.3772 26.5244 27.7479C26.5244 27.7479 26.8828 27.0045 27.4894 27.5781C27.4894 27.5781 27.8631 26.9582 28.2798 27.3119" stroke="#000072" stroke-width="0.2" stroke-miterlimit="10"/>
<path d="M22.6836 27.7975C22.6836 27.7975 23.205 27.3232 23.4331 27.864C23.4331 27.864 24.1841 27.5594 24.3938 28.1072C24.3938 28.1072 25.1699 27.7421 25.493 28.3262C25.493 28.3262 25.9522 27.9381 26.5043 28.2017C26.5043 28.2017 27.0116 27.5173 27.5989 27.9213C27.5989 27.9213 28.0168 27.2812 28.2668 27.6797" stroke="#000072" stroke-width="0.2" stroke-miterlimit="10"/>
<path d="M18.1094 32.949C18.1094 32.949 20.4205 30.7702 23.3417 30.9806L24.0057 32.8097C24.0057 32.8097 23.288 35.5255 18.763 34.6104L18.1094 32.949Z" fill="#000072"/>
<path d="M18.1094 32.949C18.1094 32.949 20.4205 30.7702 23.3417 30.9806L24.0057 32.8097C24.0057 32.8097 23.288 35.5255 18.763 34.6104L18.1094 32.949Z" stroke="#000072" stroke-width="0.2" stroke-miterlimit="10"/>
<path d="M26.8906 33.2599L27.5711 30.665L30.778 31.5394L32.6887 32.5122V33.2599L32.24 34.6111C32.24 34.6111 29.0295 35.5589 26.8906 33.2599Z" fill="#000072"/>
<path d="M26.8906 33.2599L27.5711 30.665L30.778 31.5394L32.6887 32.5122V33.2599L32.24 34.6111C32.24 34.6111 29.0295 35.5589 26.8906 33.2599Z" stroke="#000072" stroke-width="0.2" stroke-miterlimit="10"/>
<path d="M10.6602 29.8043L13.1289 35.5449" stroke="#000072" stroke-width="0.2" stroke-miterlimit="10"/>
<path d="M10.0195 30.5293C10.0195 30.5293 10.4461 33.1866 12.3083 35.502" stroke="#000072" stroke-width="0.2" stroke-miterlimit="10"/>
<path d="M11.6621 29.5839C11.6621 29.5839 13.5904 32.5196 13.8883 35.5918" stroke="#000072" stroke-width="0.2" stroke-miterlimit="10"/>
<path d="M12.8984 29.8043C12.8984 29.8043 14.0679 31.895 14.7272 35.5449" stroke="#000072" stroke-width="0.2" stroke-miterlimit="10"/>
<path d="M9.75781 31.7695C9.75781 31.7695 9.76269 31.1816 10.2287 31.4095C10.2287 31.4095 10.4022 30.3813 11.164 31.0341C11.164 31.0341 11.1928 29.9902 12.2575 30.6161C12.2575 30.6161 12.5611 29.8501 13.1988 30.5296C13.1988 30.5296 13.5151 30.3728 13.7186 30.7263" stroke="#000072" stroke-width="0.2" stroke-miterlimit="10"/>
<path d="M10.0898 30.8887C10.0898 30.8887 10.2533 30.1283 10.904 30.3802C10.904 30.3802 11.0328 29.7552 11.8908 29.963C11.8908 29.963 12.0171 29.5542 13.0352 30.0767" stroke="#000072" stroke-width="0.2" stroke-miterlimit="10"/>
<path d="M9.84766 32.082C9.84766 32.082 9.88358 31.4928 10.3806 31.9028C10.3806 31.9028 10.5372 30.8826 11.4056 31.54C11.4056 31.54 11.4289 30.5411 12.4393 31.1056C12.4393 31.1056 12.8111 30.5478 13.4591 31.0338C13.4591 31.0338 13.5748 30.7435 13.8982 31.0338" stroke="#000072" stroke-width="0.2" stroke-miterlimit="10"/>
<path d="M9.84766 32.5879C9.84766 32.5879 10.0494 32.0213 10.6013 32.5132C10.6013 32.5132 10.9391 31.588 11.6617 32.2141C11.6617 32.2141 11.9528 30.9792 12.8391 31.8273C12.8391 31.8273 12.977 31.021 13.6819 31.6176C13.6819 31.6176 13.7354 31.1225 14.1071 31.52" stroke="#000072" stroke-width="0.2" stroke-miterlimit="10"/>
<path d="M10.0195 33.0156C10.0195 33.0156 10.2072 32.5489 10.7541 32.8839C10.7541 32.8839 11.3487 32.1473 11.8944 32.6749C11.8944 32.6749 12.48 31.882 13.0388 32.4846C13.0388 32.4846 13.3295 31.7406 13.9041 32.2585C13.9041 32.2585 14.1171 31.9812 14.2891 32.2211" stroke="#000072" stroke-width="0.2" stroke-miterlimit="10"/>
<path d="M10.2148 33.5645C10.2148 33.5645 10.5454 33.0561 10.968 33.3597C10.968 33.3597 11.3384 32.7803 12.1454 33.263C12.1454 33.263 12.5294 32.4786 13.3196 33.0709C13.3196 33.0709 13.6054 32.4035 14.1057 33.0087C14.1057 33.0087 14.1076 32.361 14.4578 32.6744" stroke="#000072" stroke-width="0.2" stroke-miterlimit="10"/>
<path d="M10.4609 34.2051V34.042C10.4609 34.042 10.6824 33.4473 11.2126 33.8352C11.2126 33.8352 11.7601 33.2725 12.3394 33.7067C12.3394 33.7067 12.9381 33.0039 13.4796 33.5642C13.4796 33.5642 13.8057 32.95 14.29 33.5619" stroke="#000072" stroke-width="0.2" stroke-miterlimit="10"/>
<path d="M10.873 34.4062C10.873 34.4062 10.8936 34.0898 11.4189 34.2068C11.4189 34.2068 11.9819 33.8242 12.5418 34.1808C12.5418 34.1808 12.9368 33.5526 13.6071 34.0288C13.6071 34.0288 14.0713 33.5392 14.3889 33.9538" stroke="#000072" stroke-width="0.2" stroke-miterlimit="10"/>
<path d="M11.1641 34.7988C11.1641 34.7988 11.367 34.522 11.7383 34.7184C11.7383 34.7184 12.2204 34.2989 12.7437 34.648C12.7437 34.648 13.1078 34.1532 13.7202 34.5092C13.7202 34.5092 14.1086 34.058 14.4962 34.404" stroke="#000072" stroke-width="0.2" stroke-miterlimit="10"/>
<path d="M11.5645 35.0801C11.5645 35.0801 11.6281 34.787 11.9764 35.0672C11.9764 35.0672 12.3833 34.8329 12.8978 35.0801C12.8978 35.0801 13.4588 34.7647 13.8122 35.013C13.8122 35.013 14.2715 34.7035 14.5768 34.9989" stroke="#000072" stroke-width="0.2" stroke-miterlimit="10"/>
<path d="M12.1543 35.2856C12.1543 35.2856 12.4249 35.0309 13.0388 35.3359C13.0388 35.3359 13.3757 35.1515 13.6844 35.2165C13.7285 35.2258 13.772 35.2402 13.8138 35.2609" stroke="#000072" stroke-width="0.2" stroke-miterlimit="10"/>
<path d="M13.8555 35.3379C13.8555 35.3379 14.1676 35.093 14.6979 35.2616" stroke="#000072" stroke-width="0.2" stroke-miterlimit="10"/>
<path d="M14.4591 32.5886C14.366 32.7784 14.7274 35.7656 14.7274 35.7656H19.2354L19.1394 35.5445L18.1112 33.7856L17.4676 32.1333C16.0092 31.9478 14.5776 28.8849 14.5776 28.8849L13.5625 29.853L13.813 30.3795L14.2883 31.3646L14.4591 32.5886Z" fill="#000072"/>
<path d="M40.1598 29.6654L37.9531 35.5449" stroke="#000072" stroke-width="0.2" stroke-miterlimit="10"/>
<path d="M40.7476 30.3828C40.7476 30.3828 40.3553 34.1347 38.5137 35.6348" stroke="#000072" stroke-width="0.2" stroke-miterlimit="10"/>
<path d="M39.3077 29.629C39.3077 29.629 37.8132 32.848 37.1035 35.5801" stroke="#000072" stroke-width="0.2" stroke-miterlimit="10"/>
<path d="M38.0641 29.9109C38.0641 29.9109 36.9764 31.74 36.4121 35.9199" stroke="#000072" stroke-width="0.2" stroke-miterlimit="10"/>
<path d="M41.111 31.375C41.111 31.375 40.992 30.8549 40.6149 31.205C40.6149 31.205 40.4574 30.2753 39.7137 30.8493C39.7137 30.8493 39.5037 30.057 38.851 30.666C38.851 30.666 38.343 29.9087 37.7103 30.666C37.7103 30.666 37.5795 30.4743 37.2734 30.7264" stroke="#000072" stroke-width="0.2" stroke-miterlimit="10"/>
<path d="M41.1494 31.9004C41.1494 31.9004 41.0097 31.3901 40.4953 31.7688C40.4953 31.7688 40.1962 31.1293 39.4547 31.5395C39.4547 31.5395 39.2808 30.8918 38.5101 31.3137C38.5101 31.3137 38.2824 30.8206 37.5148 31.1709C37.5148 31.1709 37.3352 30.8591 37.0137 31.1985" stroke="#000072" stroke-width="0.2" stroke-miterlimit="10"/>
<path d="M41.1464 32.5137C41.1464 32.5137 40.8526 31.9641 40.3508 32.3201C40.3508 32.3201 39.8817 31.7242 39.2039 32.2001C39.2039 32.2001 38.9476 31.6192 38.2959 32.0158C38.2959 32.0158 37.9624 31.3753 37.2705 31.8279C37.2705 31.8279 37.1436 31.4902 36.6406 31.7701" stroke="#000072" stroke-width="0.2" stroke-miterlimit="10"/>
<path d="M41.0269 33.0098C41.0269 33.0098 40.8538 32.4664 40.1687 32.9171C40.1687 32.9171 39.7019 32.2196 39.0048 32.736C39.0048 32.736 38.7035 32.0253 38.0647 32.6059C38.0647 32.6059 37.8632 32.0277 37.1026 32.467C37.1026 32.467 36.9912 32.0146 36.6666 32.4028C36.3419 32.791 36.5808 32.3956 36.5808 32.3956" stroke="#000072" stroke-width="0.2" stroke-miterlimit="10"/>
<path d="M40.8431 33.5488C40.8431 33.5488 40.5952 32.9422 39.9843 33.4185C39.9843 33.4185 39.602 32.9232 38.817 33.236C38.817 33.236 38.3425 32.725 37.7923 33.2358C37.7923 33.2358 37.4176 32.7163 36.9256 33.149C36.9256 33.149 36.734 32.2966 36.2715 33.1204" stroke="#000072" stroke-width="0.2" stroke-miterlimit="10"/>
<path d="M40.471 33.9688C40.471 33.9688 40.4559 33.4146 39.7967 33.8603C39.7967 33.8603 39.3624 33.3167 38.5977 33.8278C38.5977 33.8278 38.1843 33.2684 37.6252 33.8596C37.6252 33.8596 37.2443 33.3174 36.7718 33.8423C36.7718 33.8423 36.7569 32.9385 36.1191 33.647" stroke="#000072" stroke-width="0.2" stroke-miterlimit="10"/>
<path d="M40.156 34.4375C40.156 34.4375 40.0579 34.1351 39.5314 34.3687C39.5314 34.3687 38.9595 33.9836 38.3943 34.3588C38.3943 34.3588 38.068 33.9474 37.4709 34.316C37.4709 34.316 36.9795 33.9319 36.6418 34.3001C36.6418 34.3001 36.6716 33.6128 35.9551 34.1405" stroke="#000072" stroke-width="0.2" stroke-miterlimit="10"/>
<path d="M39.7769 34.805C39.7769 34.805 39.6961 34.4636 39.2588 34.805C39.2588 34.805 38.7622 34.5056 38.2039 34.8672C38.2039 34.8672 37.6545 34.5551 37.301 34.8672C37.301 34.8672 36.9222 34.4068 36.5215 34.8672C36.5215 34.8672 36.3988 34.2588 36.0117 34.7602" stroke="#000072" stroke-width="0.2" stroke-miterlimit="10"/>
<path d="M39.4446 34.9808C39.4446 34.9808 39.2633 34.832 39.0814 35.0474C39.0814 35.0474 38.3554 34.8561 38.0657 35.2402C38.0657 35.2402 37.7539 34.9355 37.1954 35.2402C37.1954 35.2402 36.9225 34.7902 36.5133 35.2402C36.5133 35.2402 36.2878 34.6419 35.8652 35.2402" stroke="#000072" stroke-width="0.2" stroke-miterlimit="10"/>
<path d="M33.683 32.0854L35.1318 30.8332L36.2714 29.0997L36.4125 28.715L37.369 29.6654L37.4441 30.1376L36.9256 30.6654L36.6426 31.314L36.522 32.0854V32.4997L36.5122 32.7762C36.5122 32.7762 36.0174 34.8678 36.2714 35.6909L31.8588 35.7891L31.7148 35.5449L32.4356 34.2895L33.2267 32.6239L33.683 32.0854Z" fill="#000072"/>
<path d="M32.8752 23.965C32.8752 23.965 29.3438 30.1104 28.9473 31.8262" stroke="#000072" stroke-width="0.2" stroke-miterlimit="10"/>
<path d="M31.7459 24.4375C31.7459 24.4375 28.2939 30.6339 28.5992 31.1582" stroke="#000072" stroke-width="0.2" stroke-miterlimit="10"/>
<path d="M35.0444 24.0993C35.0444 24.0993 32.4199 30.5099 31.1992 32.0078" stroke="#000072" stroke-width="0.2" stroke-miterlimit="10"/>
<path d="M30.3105 25.3716C30.3105 25.3716 31.1092 24.6137 31.3066 25.2463C31.3066 25.2463 31.8428 24.5383 32.2797 25.0233C32.2797 25.0233 33.3203 24.2719 33.4869 25.1125C33.4869 25.1125 34.433 24.4441 34.5118 25.3716C34.5118 25.3716 34.8553 25.2844 34.847 26.0637C34.847 26.0637 35.1556 26.6691 35.066 26.9043" stroke="#000072" stroke-width="0.2" stroke-miterlimit="10"/>
<path d="M31.623 24.662C31.623 24.662 32.2484 24.1555 32.6053 24.4381C32.6053 24.4381 33.4468 23.6733 33.8855 24.3096C33.8855 24.3096 34.7176 24.1777 34.7323 24.8447C34.7323 24.8447 35.0692 25.2237 35.043 25.3714C35.043 25.3714 34.6573 27.6952 33.9197 29.0761C33.9197 29.0761 32.9417 32.0853 31.9458 32.3262" stroke="#000072" stroke-width="0.2" stroke-miterlimit="10"/>
<path d="M30.1875 25.8386C30.1875 25.8386 30.6875 25.2789 30.984 25.8386C30.984 25.8386 31.7171 25.2048 31.7468 25.8386C31.7468 25.8386 32.9041 25.3368 33.0569 25.9664C33.0569 25.9664 33.9114 25.4202 34.0841 26.3541C34.0841 26.3541 34.9055 26.0786 34.645 27.0289C34.645 27.0289 35.1007 26.9219 35.0148 27.5195" stroke="#000072" stroke-width="0.2" stroke-miterlimit="10"/>
<path d="M29.7363 26.5364C29.7363 26.5364 30.4629 25.9277 30.5543 26.644C30.5543 26.644 31.2578 26.0297 31.2963 26.8062C31.2963 26.8062 32.5533 26.2275 32.5246 27.027C32.5246 27.027 33.4026 26.776 33.5602 27.5285C33.5602 27.5285 34.3187 27.3016 34.3976 27.9365C34.3976 27.9365 34.957 27.9053 34.9046 28.3105" stroke="#000072" stroke-width="0.2" stroke-miterlimit="10"/>
<path d="M29.3535 27.3123C29.3535 27.3123 29.9133 26.4741 30.2536 27.3073C30.2536 27.3073 30.7064 26.941 30.9119 27.46C30.9119 27.46 32.0131 27.1305 32.1096 27.8637C32.1096 27.8637 32.8548 27.4438 33.2262 28.1069C33.2262 28.1069 34.0905 27.9789 34.2162 28.4362C34.2162 28.4362 34.6103 28.3261 34.7517 28.7148" stroke="#000072" stroke-width="0.2" stroke-miterlimit="10"/>
<path d="M29.1348 27.7991C29.1348 27.7991 29.6528 27.5562 29.8072 28.1081C29.8072 28.1081 30.3437 27.6871 30.5592 28.1921C30.5592 28.1921 31.4376 27.8908 31.7193 28.5225C31.7193 28.5225 32.6709 28.1988 32.9803 28.7947C32.9803 28.7947 33.6256 28.6408 33.9777 29.0335C33.9777 29.0335 34.4058 28.8893 34.4642 29.2812" stroke="#000072" stroke-width="0.2" stroke-miterlimit="10"/>
<path d="M28.7578 28.4456C28.7578 28.4456 29.476 27.967 29.4748 28.7698C29.4748 28.7698 30.0987 28.3739 30.1857 28.8682C30.1857 28.8682 31.157 28.6157 31.397 29.2795C31.397 29.2795 32.2056 28.751 32.6048 29.5576C32.6048 29.5576 33.4368 29.1581 33.6254 29.8164" stroke="#000072" stroke-width="0.2" stroke-miterlimit="10"/>
<path d="M28.4941 29.2142C28.4941 29.2142 29.0491 28.6774 29.2344 29.2794C29.2344 29.2794 29.7454 28.8917 29.934 29.4422C29.934 29.4422 30.8278 29.2199 31.1297 29.8164C31.1297 29.8164 31.932 29.5076 32.3225 30.1209C32.3225 30.1209 33.0162 29.7244 33.3745 30.3281" stroke="#000072" stroke-width="0.2" stroke-miterlimit="10"/>
<path d="M28.2461 29.7214C28.2461 29.7214 28.8149 29.4058 28.9939 29.8169C28.9939 29.8169 29.4921 29.5082 29.6839 29.967C29.6839 29.967 30.6611 29.7867 30.8127 30.3287C30.8127 30.3287 31.7047 30.0999 32.051 30.6397C32.051 30.6397 32.7287 30.4245 33.1211 30.8514C33.1211 30.8514 33.2799 30.7661 33.2796 31.1582" stroke="#000072" stroke-width="0.2" stroke-miterlimit="10"/>
<path d="M28.0254 30.198C28.0254 30.198 28.6333 29.9185 28.7565 30.2769C28.7565 30.2769 29.4087 30.0425 29.4613 30.4435C29.4613 30.4435 30.5673 30.219 30.633 30.804C30.633 30.804 31.6123 30.541 31.757 31.1576C31.757 31.1576 32.606 30.8444 32.7936 31.539C32.7936 31.539 33.1248 31.3983 33.2207 31.8262" stroke="#000072" stroke-width="0.2" stroke-miterlimit="10"/>
<path d="M17.5684 23.5182C17.5684 23.5182 20.7163 28.1587 21.4519 31.1582" stroke="#000072" stroke-width="0.2" stroke-miterlimit="10"/>
<path d="M19.377 24.4134C19.377 24.4134 21.7287 28.277 22.5095 30.834" stroke="#000072" stroke-width="0.2" stroke-miterlimit="10"/>
<path d="M16.0566 24.2553C16.0566 24.2553 18.7981 31.226 19.6959 31.7695" stroke="#000072" stroke-width="0.2" stroke-miterlimit="10"/>
<path d="M15.9453 25.5565C15.9453 25.5565 18.1626 31.7682 18.824 32.0859" stroke="#000072" stroke-width="0.2" stroke-miterlimit="10"/>
<path d="M16.2559 24.5352C16.2559 24.5352 16.317 23.806 16.9794 24.2283C16.9794 24.2283 17.2434 23.7059 17.9938 24.1617C17.9938 24.1617 18.193 23.882 18.8269 24.1097" stroke="#000072" stroke-width="0.2" stroke-miterlimit="10"/>
<path d="M16.0957 25.9648C16.0957 25.9648 16.1551 25.4517 16.6225 25.6524C16.6225 25.6524 16.7672 24.9414 17.5716 25.4384C17.5716 25.4384 17.7209 24.6905 18.6088 25.1482C18.6088 25.1482 19.1668 24.4928 19.8095 25.1482C19.8095 25.1482 20.2797 24.7564 20.6231 25.1482" stroke="#000072" stroke-width="0.2" stroke-miterlimit="10"/>
<path d="M15.9453 25.3496C15.9453 25.3496 16.1515 25.0373 16.3992 25.1489C16.3992 25.1489 16.6662 24.4699 17.2429 24.7724C17.2429 24.7724 17.6083 24.2801 18.2678 24.5995C18.2678 24.5995 18.9544 24.316 19.3752 24.4917" stroke="#000072" stroke-width="0.2" stroke-miterlimit="10"/>
<path d="M15.8711 26.9375C15.8711 26.9375 15.9504 26.5922 16.4001 26.7909C16.4001 26.7909 16.4621 26.2689 16.9776 26.5387C16.9776 26.5387 17.1098 25.822 18.0271 26.2658C18.0271 26.2658 18.1197 25.4296 19.0932 25.9646C19.0932 25.9646 19.5214 25.3235 20.1699 25.7858C20.1699 25.7858 20.2422 25.4207 20.7391 25.7312" stroke="#000072" stroke-width="0.2" stroke-miterlimit="10"/>
<path d="M15.9453 27.7461C15.9453 27.7461 16.1505 27.1747 16.6743 27.5199C16.6743 27.5199 16.7826 26.9106 17.321 27.3137C17.321 27.3137 17.7199 26.7536 18.3041 27.0292C18.3041 27.0292 18.8297 26.2694 19.5113 26.7048C19.5113 26.7048 20.0061 26.1195 20.5404 26.4651C20.5404 26.4651 20.5594 26.2418 21.0651 26.3545" stroke="#000072" stroke-width="0.2" stroke-miterlimit="10"/>
<path d="M16.0957 28.3105C16.0957 28.3105 16.2367 27.7231 16.9005 28.106C16.9005 28.106 17.2087 27.7042 17.6103 27.9748C17.6103 27.9748 17.9557 27.2952 18.6694 27.6861C18.6694 27.6861 19.1485 27.0673 19.9181 27.4568C19.9181 27.4568 20.2697 26.9401 20.9472 27.2361C20.9472 27.2361 20.8897 26.9325 21.4041 27.1258" stroke="#000072" stroke-width="0.2" stroke-miterlimit="10"/>
<path d="M16.3594 28.8848C16.3594 28.8848 16.5139 28.3692 17.0497 28.628C17.0497 28.628 17.3689 28.0885 17.8538 28.4952C17.8538 28.4952 18.0676 27.8093 18.9748 28.2782C18.9748 28.2782 19.4077 27.6795 20.2052 27.9723C20.2052 27.9723 20.5219 27.4062 21.2358 27.7525C21.2358 27.7525 21.3842 27.4715 21.7447 27.6962" stroke="#000072" stroke-width="0.2" stroke-miterlimit="10"/>
<path d="M16.3965 29.3965C16.3965 29.3965 16.6139 28.7364 17.2078 28.8847C17.2078 28.8847 17.7414 28.6271 18.0104 28.863C18.0104 28.863 18.7775 28.3462 19.1715 28.7143C19.1715 28.7143 19.9642 28.1524 20.4446 28.5103C20.4446 28.5103 20.9859 28.1026 21.5158 28.3866C21.5158 28.3866 21.8062 28.0995 22.1648 28.3108" stroke="#000072" stroke-width="0.2" stroke-miterlimit="10"/>
<path d="M22.5069 29.1007C22.5069 29.1007 21.9548 28.4465 21.8266 29.0619C21.8266 29.0619 20.8841 28.5555 20.7953 29.2811C20.7953 29.2811 19.8694 28.6576 19.5438 29.4722C19.5438 29.4722 18.5971 29.0055 18.3565 29.6626C18.3565 29.6626 17.7527 29.0964 17.6594 29.8181C17.6594 29.8181 17.3442 29.7101 17.2891 29.9902" stroke="#000072" stroke-width="0.2" stroke-miterlimit="10"/>
<path d="M22.7559 29.6615C22.7559 29.6615 22.2454 29.1561 22.1096 29.7291C22.1096 29.7291 21.3592 29.2865 21.0419 29.885C21.0419 29.885 20.2326 29.5183 19.9182 30.1986C19.9182 30.1986 19.0525 29.7659 18.8229 30.5118C18.8229 30.5118 18.2284 30.2961 18.025 30.8346C18.025 30.8346 17.7193 30.762 17.5684 31.1582" stroke="#000072" stroke-width="0.2" stroke-miterlimit="10"/>
<path d="M22.8762 30.0946C22.8762 30.0946 22.4909 29.4704 22.311 30.2476C22.311 30.2476 21.8329 29.981 21.2731 30.5287C21.2731 30.5287 20.5571 30.3088 20.164 30.7338C20.164 30.7338 19.5969 30.5939 19.1854 30.967C19.1628 30.9875 19.1407 31.0095 19.1191 31.0332" stroke="#000072" stroke-width="0.2" stroke-miterlimit="10"/>
<path d="M19.1389 31.0098C19.1389 31.0098 18.61 30.9668 18.3352 31.4089C18.3352 31.4089 17.9536 31.4235 17.7774 31.8268C17.6012 32.2301 17.6947 31.769 17.6947 31.769" stroke="#000072" stroke-width="0.2" stroke-miterlimit="10"/>
<path fill-rule="evenodd" clip-rule="evenodd" d="M25.4532 7.12246C31.5281 7.12246 36.2013 12.7927 36.2013 17.5273C36.2013 22.2621 27.6357 24.1754 25.4532 24.2687C23.2706 24.362 14.2598 22.1232 14.2598 17.3885C14.2598 12.6538 19.3783 7.12246 25.4532 7.12246Z" fill="#FF850B"/>
<path d="M25.4561 7.35314C19.3978 7.35314 14.5194 12.8433 14.5194 17.389C14.5194 18.571 15.1184 19.6825 16.2999 20.6928C18.9316 22.9431 23.7331 24.0415 25.3207 24.0416C25.3643 24.0416 25.4052 24.0408 25.4439 24.0391C26.5941 23.99 29.2439 23.4591 31.5338 22.433C33.5473 21.5307 35.9474 19.9473 35.9474 17.5278C35.9474 12.8226 31.3646 7.35314 25.4561 7.35314ZM25.3272 24.502C23.6242 24.502 18.7161 23.395 15.9456 21.0261C14.6585 19.9255 14.0059 18.7018 14.0059 17.389C14.0059 15.019 15.2721 12.3779 17.3929 10.3239C19.6446 8.14333 22.5835 6.89265 25.4561 6.89265C28.3466 6.89265 31.1332 8.13814 33.3028 10.3997C35.2803 12.461 36.461 15.1257 36.461 17.5278C36.461 19.6292 34.8365 21.4678 31.7633 22.8449C29.4067 23.901 26.6635 24.448 25.4683 24.4991C25.4242 24.501 25.377 24.502 25.3272 24.502Z" fill="#000072"/>
<g opacity="0.5">
<g opacity="0.5">
<path opacity="0.5" fill-rule="evenodd" clip-rule="evenodd" d="M25.4528 7.12292C29.1864 7.12292 32.3901 9.26507 34.3052 12.0151C34.3251 12.104 34.3443 12.1933 34.3612 12.2832C32.6127 9.98471 29.8864 8.46905 26.8672 8.0602C27.0608 8.12578 27.173 8.20367 27.173 8.28728C27.173 8.52098 26.2953 8.71041 25.2127 8.71041C24.1302 8.71041 23.2525 8.52098 23.2525 8.28728C23.2525 8.20367 23.3645 8.12578 23.5583 8.0602C20.5389 8.46914 17.8129 9.98489 16.0645 12.2832L16.0741 12.2347C18.0902 9.37482 21.5767 7.12292 25.4528 7.12292Z" fill="white"/>
</g>
</g>
<path fill-rule="evenodd" clip-rule="evenodd" d="M35.9128 18.9821C34.4022 22.6591 27.3967 24.1856 25.4532 24.2687C23.5296 24.351 16.3035 22.6213 14.6152 18.9687C14.7447 16.9791 15.8718 16.4353 17.9562 17.4076C18.8134 17.8073 19.6853 18.2243 20.3763 17.9068C24.3202 16.094 26.7283 16.4358 29.4278 17.9068C30.6902 18.5948 31.9221 17.5686 32.695 17.2557C35.1567 16.2589 36.2861 16.9561 35.9128 18.9821Z" fill="white"/>
<g opacity="0.300003">
<g opacity="0.300003">
<path opacity="0.300003" fill-rule="evenodd" clip-rule="evenodd" d="M36.1545 16.7002C36.1851 16.978 36.2013 17.2541 36.2013 17.527C36.2013 17.7014 36.1883 17.8714 36.1659 18.0383L36.1682 17.9884C35.8682 21.1481 28.773 23.5608 24.956 23.7555C21.7698 23.9182 15.4061 20.8423 14.3361 17.9884C14.3381 18.0476 14.3414 18.1066 14.3444 18.1656C14.2899 17.9142 14.2598 17.6554 14.2598 17.3882C14.2598 17.1754 14.2705 16.9611 14.2907 16.7456L14.3073 16.6995C16.7947 19.9065 20.8751 21.8187 25.2313 21.8187C29.587 21.8187 33.6672 19.9066 36.1545 16.7002Z" fill="#000072"/>
</g>
</g>
<path fill-rule="evenodd" clip-rule="evenodd" d="M21.5246 15.1864C21.1849 15.0506 20.8372 14.823 20.4819 14.504C19.8659 14.5291 19.373 15.1192 19.373 15.8434C19.373 16.5835 19.8877 17.1836 20.5224 17.1836C21.1573 17.1836 21.672 16.5835 21.672 15.8434C21.672 15.6047 21.6184 15.3806 21.5246 15.1864Z" fill="#000072"/>
<path d="M31.173 13.926C30.7584 14.4199 30.3508 14.8018 29.9502 15.0718C29.3609 15.4688 28.723 15.5384 28.6523 15.101C28.9694 15.0685 29.2997 14.9363 29.6433 14.7049C30.4901 14.1341 30.7548 13.7667 31.173 13.926Z" fill="#000072"/>
<path fill-rule="evenodd" clip-rule="evenodd" d="M29.2392 15.1864C29.5788 15.0506 29.9266 14.823 30.282 14.504C30.898 14.5291 31.3907 15.1192 31.3907 15.8434C31.3907 16.5835 30.8762 17.1836 30.2413 17.1836C29.6064 17.1836 29.0918 16.5835 29.0918 15.8434C29.0918 15.6047 29.1453 15.3806 29.2392 15.1864Z" fill="#000072"/>
<path fill-rule="evenodd" clip-rule="evenodd" d="M29.7633 15.5037C29.5768 15.5037 29.4258 15.648 29.4258 15.826C29.4258 16.0041 29.5768 16.1484 29.7633 16.1484C29.9496 16.1484 30.1007 16.0041 30.1007 15.826C30.1007 15.648 29.9496 15.5037 29.7633 15.5037Z" fill="white"/>
<path fill-rule="evenodd" clip-rule="evenodd" d="M25.2345 16.0797C26.0565 16.0797 26.7229 16.4781 26.7229 16.9695C26.7229 17.461 26.0565 17.8594 25.2345 17.8594C24.4124 17.8594 23.7461 17.461 23.7461 16.9695C23.7461 16.4781 24.4124 16.0797 25.2345 16.0797Z" fill="#000072"/>
<path d="M26.6551 18.9492C26.1312 18.9492 25.6245 18.7745 25.2356 18.4623C24.8013 18.817 24.2027 18.9819 23.6143 18.8981C22.9307 18.8007 22.3511 18.3805 22.1013 17.8016C22.0502 17.683 22.1159 17.5497 22.2482 17.5038C22.3804 17.458 22.5291 17.5169 22.5803 17.6355C22.7642 18.062 23.1913 18.3715 23.6949 18.4433C24.1987 18.5151 24.7116 18.3396 25.034 17.9854C25.0821 17.9325 25.154 17.9015 25.2301 17.9008C25.3068 17.9008 25.3787 17.9296 25.4282 17.9815C25.7644 18.3349 26.2723 18.5226 26.7891 18.4837C27.3052 18.4449 27.7719 18.1837 28.0377 17.7851C28.1104 17.6759 28.2683 17.6403 28.3898 17.7056C28.5115 17.7708 28.5512 17.9122 28.4784 18.0213C28.128 18.547 27.5126 18.8914 26.8321 18.9426C26.773 18.947 26.7139 18.9492 26.6551 18.9492Z" fill="#000072"/>
<path fill-rule="evenodd" clip-rule="evenodd" d="M25.2336 18.1313C25.7688 18.5875 26.2946 18.7816 26.8112 18.7134C26.939 21.7206 23.5395 21.5981 23.6552 18.6709C24.2885 18.743 24.8145 18.5632 25.2336 18.1313Z" fill="#000072"/>
<path d="M23.9118 18.9177C23.9372 19.6839 24.2403 20.2863 24.745 20.5543C25.0785 20.7313 25.4553 20.7338 25.7789 20.561C26.2621 20.3029 26.54 19.7252 26.5579 18.9571C26.121 18.9446 25.6821 18.775 25.2475 18.4508C24.8733 18.7613 24.4297 18.9177 23.9234 18.9177C23.9196 18.9177 23.9157 18.9177 23.9118 18.9177ZM25.2727 21.1484C25.003 21.1485 24.7318 21.0825 24.4834 20.9506C23.7525 20.5625 23.3574 19.7289 23.3995 18.6637L23.4095 18.4117L23.6884 18.4435C24.2367 18.5058 24.6784 18.3545 25.0407 17.9811L25.2168 17.7996L25.4113 17.9653C25.8907 18.3739 26.3371 18.5445 26.7747 18.4865L27.0578 18.4492L27.0686 18.7056C27.1136 19.7635 26.7392 20.584 26.0417 20.9566C25.8022 21.0845 25.5381 21.1484 25.2727 21.1484Z" fill="#000072"/>
<path fill-rule="evenodd" clip-rule="evenodd" d="M25.2623 19.7943C24.8052 19.7943 24.3759 19.9905 24.1074 20.322C24.7254 21.1113 25.8212 21.1242 26.4116 20.3153C26.1428 19.9879 25.7161 19.7943 25.2623 19.7943Z" fill="#FF0066"/>
<path d="M24.437 20.3275C24.675 20.5628 24.9744 20.6904 25.285 20.6878C25.5853 20.6834 25.8623 20.5564 26.0802 20.3263C25.863 20.1352 25.5675 20.0248 25.2594 20.0248C24.95 20.0248 24.6542 20.1356 24.437 20.3275ZM25.2691 21.1484C24.7403 21.1484 24.2404 20.8965 23.8944 20.4546L23.7891 20.32L23.8968 20.187C24.2125 19.7971 24.7219 19.5643 25.2594 19.5643C25.7925 19.5643 26.2994 19.7941 26.6154 20.179L26.7211 20.3078L26.6235 20.4417C26.3013 20.8831 25.8165 21.1406 25.2934 21.1482C25.2853 21.1484 25.2771 21.1484 25.2691 21.1484Z" fill="#000072"/>
<path fill-rule="evenodd" clip-rule="evenodd" d="M34.9504 12.709C33.3015 10.2655 31.3246 8.61117 29.0195 7.74626C33.5411 2.06443 35.5181 3.71867 34.9504 12.709Z" fill="#FF850B"/>
<path d="M29.4151 7.65035C31.4387 8.47861 33.225 9.93046 34.7363 11.9744C35.0121 6.43484 34.1742 4.9606 33.4035 4.7175C32.8152 4.53212 31.649 4.90077 29.4151 7.65035ZM35.1612 13.4648L34.7321 12.8289C33.1196 10.4394 31.1647 8.80103 28.9218 7.95941L28.625 7.84805L28.8119 7.61324C30.8802 5.01423 32.4374 3.92453 33.5738 4.28311C35.0234 4.74037 35.5427 7.42212 35.2081 12.7228L35.1612 13.4648Z" fill="#000072"/>
<path fill-rule="evenodd" clip-rule="evenodd" d="M28.6291 13.0064C29.0094 12.8665 29.3928 12.9172 29.4853 13.1196C29.5778 13.322 29.3445 13.5995 28.9643 13.7394C28.584 13.8792 28.2007 13.8284 28.1081 13.6261C28.0156 13.4237 28.2489 13.1462 28.6291 13.0064Z" fill="white"/>
<path fill-rule="evenodd" clip-rule="evenodd" d="M22.0014 12.9927C21.6212 12.8528 21.2378 12.9036 21.1453 13.106C21.0527 13.3084 21.286 13.5859 21.6662 13.7257C22.0464 13.8655 22.4298 13.8148 22.5223 13.6125C22.6149 13.4101 22.3816 13.1326 22.0014 12.9927Z" fill="white"/>
<path fill-rule="evenodd" clip-rule="evenodd" d="M20.693 15.5037C20.5065 15.5037 20.3555 15.648 20.3555 15.826C20.3555 16.0041 20.5065 16.1484 20.693 16.1484C20.8793 16.1484 21.0304 16.0041 21.0304 15.826C21.0304 15.648 20.8793 15.5037 20.693 15.5037Z" fill="white"/>
<path fill-rule="evenodd" clip-rule="evenodd" d="M15.6848 12.8262C17.3336 10.3826 19.3105 8.72836 21.6156 7.86336C17.094 2.18153 15.1171 3.83586 15.6848 12.8262Z" fill="#FF850B"/>
<path d="M17.507 4.79426C17.4038 4.79426 17.3128 4.80924 17.2325 4.83459C16.4618 5.07769 15.6239 6.5519 15.8997 12.0915C17.4108 10.0476 19.1971 8.59574 21.2208 7.76739C19.2919 5.39332 18.159 4.79426 17.507 4.79426ZM15.4748 13.582L15.4279 12.8399C15.0932 7.5392 15.6125 4.85746 17.0621 4.40016C18.1978 4.04202 19.7555 5.13109 21.824 7.73027L22.0109 7.96509L21.7141 8.07644C19.4711 8.91815 17.5162 10.5565 15.9039 12.9461L15.4748 13.582Z" fill="#000072"/>
<g opacity="0.649994">
<g opacity="0.649994">
<path opacity="0.649994" fill-rule="evenodd" clip-rule="evenodd" d="M21.0444 8.09375C21.2309 8.01103 21.4199 7.93384 21.611 7.86201C18.8086 4.34054 16.9842 3.63838 16.1367 5.75271C17.0393 4.26594 18.675 5.04618 21.0441 8.09357L21.0444 8.09375Z" fill="white"/>
</g>
</g>
<path fill-rule="evenodd" clip-rule="evenodd" d="M16.9187 11.1699C17.7225 10.2784 18.6334 9.50675 19.6516 8.85511C17.3692 4.86928 16.4582 5.64085 16.9187 11.1699Z" fill="#000072"/>
<path d="M17.5073 6.58002C17.4961 6.58002 17.4884 6.58137 17.484 6.58249C17.4565 6.58944 17.2125 6.67958 17.1082 7.69471C17.0378 8.37869 17.0461 9.3499 17.1326 10.5869C17.7962 9.91358 18.5304 9.30933 19.3232 8.78426C18.1223 6.72575 17.6241 6.58002 17.5073 6.58002ZM16.7122 11.7656L16.664 11.1861C16.3135 6.97887 16.8114 6.27394 17.3448 6.13924C17.9826 5.97777 18.7414 6.75857 19.8812 8.749L19.9826 8.92603L19.8019 9.04161C18.8078 9.67786 17.9053 10.4423 17.1196 11.3138L16.7122 11.7656Z" fill="#000072"/>
<g opacity="0.300003">
<g opacity="0.300003">
<path opacity="0.300003" fill-rule="evenodd" clip-rule="evenodd" d="M17.2135 6.48341C16.3806 7.042 15.8426 8.55329 15.5996 11.0171C15.6142 11.5829 15.6418 12.1859 15.6822 12.8262C15.8054 12.6264 15.9356 12.4289 16.0732 12.2346L16.0636 12.283C16.7289 11.373 17.4446 10.584 18.2104 9.91602C17.7626 10.2948 17.3406 10.7026 16.9444 11.1393C16.9367 11.1478 16.9289 11.1563 16.9211 11.1651C16.9204 11.1658 16.9198 11.1666 16.919 11.1676C16.9183 11.1683 16.9177 11.169 16.917 11.1697C16.6938 8.49075 16.7927 6.92868 17.2135 6.48341ZM33.4183 6.36697C34.2513 6.92564 34.7893 8.43685 35.0322 10.9007C35.0176 11.4665 34.99 12.0695 34.9497 12.7097C34.8264 12.5099 34.6962 12.3126 34.5586 12.1181L34.5682 12.1666C33.903 11.2565 33.1873 10.4675 32.4214 9.79967C32.8693 10.1784 33.2912 10.5862 33.6874 11.0229C33.6951 11.0314 33.7029 11.04 33.7107 11.0486C33.7114 11.0494 33.7121 11.0502 33.7128 11.0511C33.7136 11.0519 33.7141 11.0525 33.7148 11.0534C33.9381 8.37439 33.8391 6.81223 33.4183 6.36697Z" fill="#000072"/>
</g>
</g>
<g opacity="0.649994">
<g opacity="0.649994">
<path opacity="0.649994" fill-rule="evenodd" clip-rule="evenodd" d="M29.5842 7.97852C29.3977 7.89579 29.2087 7.81861 29.0176 7.74687C31.8199 4.22539 33.6444 3.52314 34.492 5.63747C33.5894 4.1507 31.9536 4.93102 29.5845 7.97843L29.5842 7.97852Z" fill="white"/>
</g>
</g>
<path fill-rule="evenodd" clip-rule="evenodd" d="M33.7192 11.0527C32.9154 10.1611 32.0045 9.38947 30.9863 8.73782C33.2687 4.752 34.1798 5.52365 33.7192 11.0527Z" fill="#000072"/>
<path d="M31.3117 8.66888C32.1046 9.19404 32.8389 9.79835 33.5023 10.4716C33.5888 9.23456 33.5971 8.26337 33.5267 7.57937C33.4223 6.56423 33.1785 6.47406 33.151 6.46714C33.1003 6.45453 32.6284 6.41202 31.3117 8.66888ZM33.9226 11.6504L33.5153 11.1985C32.7298 10.3271 31.8274 9.56263 30.833 8.92622L30.6523 8.81064L30.7537 8.63363C31.8934 6.64335 32.6516 5.86258 33.2902 6.0239C33.8235 6.15859 34.3215 6.86352 33.9709 11.0709L33.9226 11.6504Z" fill="#000072"/>
<path d="M17.5071 4.79428C17.4039 4.79428 17.3129 4.80926 17.2326 4.83461C16.4619 5.07771 15.6239 6.55196 15.8997 12.0916C17.4109 10.0476 19.1972 8.59573 21.2209 7.76741C19.2921 5.39334 18.1591 4.79428 17.5071 4.79428ZM15.4747 13.582L15.4279 12.8399C15.0932 7.53922 15.6126 4.85745 17.0622 4.40019C18.1979 4.04204 19.7556 5.13111 21.8241 7.7303L22.011 7.96511L21.7142 8.07646C19.4712 8.91818 17.5163 10.5566 15.9039 12.9461L15.4747 13.582Z" fill="#000072"/>
<path d="M25.4561 7.35314C19.3978 7.35314 14.5194 12.8433 14.5194 17.389C14.5194 18.571 15.1184 19.6825 16.2999 20.6928C18.9316 22.9431 23.7331 24.0415 25.3207 24.0416C25.3643 24.0416 25.4052 24.0408 25.4439 24.0391C26.5941 23.99 29.2439 23.4591 31.5338 22.433C33.5473 21.5307 35.9474 19.9473 35.9474 17.5278C35.9474 12.8226 31.3646 7.35314 25.4561 7.35314ZM25.3272 24.502C23.6242 24.502 18.7161 23.395 15.9456 21.0261C14.6585 19.9255 14.0059 18.7018 14.0059 17.389C14.0059 15.019 15.2721 12.3779 17.3929 10.3239C19.6446 8.14333 22.5835 6.89265 25.4561 6.89265C28.3466 6.89265 31.1332 8.13814 33.3028 10.3997C35.2803 12.461 36.461 15.1257 36.461 17.5278C36.461 19.6292 34.8365 21.4678 31.7633 22.8449C29.4067 23.901 26.6635 24.448 25.4683 24.4991C25.4242 24.501 25.377 24.502 25.3272 24.502Z" fill="#000072"/>
<g opacity="0.559998">
<g opacity="0.559998">
<path opacity="0.559998" fill-rule="evenodd" clip-rule="evenodd" d="M25.7226 16.437C25.9471 16.4901 26.1131 16.5868 26.0936 16.6532C26.0742 16.7195 25.8765 16.7303 25.652 16.6772C25.4275 16.6242 25.2613 16.5274 25.2809 16.461C25.3004 16.3947 25.4982 16.3839 25.7226 16.437Z" fill="white"/>
</g>
</g>
<path d="M19.7754 13.926C20.1901 14.4199 20.5977 14.8018 20.9983 15.0718C21.5877 15.4688 22.2255 15.5384 22.2962 15.101C21.9792 15.0685 21.6488 14.9363 21.3052 14.7049C20.4584 14.1341 20.1936 13.7667 19.7754 13.926Z" fill="#000072"/>
<path d="M29.4151 7.65035C31.4387 8.47861 33.225 9.93046 34.7363 11.9744C35.0121 6.43484 34.1742 4.9606 33.4035 4.7175C32.8152 4.53212 31.649 4.90077 29.4151 7.65035ZM35.1612 13.4648L34.7321 12.8289C33.1196 10.4394 31.1647 8.80103 28.9218 7.95941L28.625 7.84805L28.8119 7.61324C30.8802 5.01423 32.4374 3.92453 33.5738 4.28311C35.0234 4.74037 35.5427 7.42212 35.2081 12.7228L35.1612 13.4648Z" fill="#000072"/>
</svg>
